<?xml version="1.0" standalone="no"?>
<!DOCTYPE svg PUBLIC "-//W3C//DTD SVG 1.1//EN" "http://www.w3.org/Graphics/SVG/1.1/DTD/svg11.dtd" >
<svg>
<metadata>
Created by FontForge 20090914 at Thu Sep  5 16:40:15 2013
 By www-data
Copyright (c) 1989, 1990 Adobe Systems Incorporated.  All Rights Reserved.Trade Gothic is a trademark of Linotype AG and/or its subsidiaries.
</metadata>
<defs>
<font id="TradeGothic-Bold" horiz-adv-x="500" >
  <font-face 
    font-family="TradeGothic"
    font-weight="700"
    font-stretch="normal"
    units-per-em="1000"
    panose-1="2 11 8 0 0 0 0 0 0 0"
    ascent="800"
    descent="-200"
    x-height="544"
    cap-height="722"
    bbox="-58 -228 1000 971"
    underline-thickness="50"
    underline-position="-50"
    unicode-range="U+0020-U+2122"
  />
<missing-glyph horiz-adv-x="502" 
d="M-1 0h500v500h-500v-500zM9 10v480h480v-480h-480z" />
    <glyph glyph-name=".notdef" horiz-adv-x="502" 
d="M-1 0h500v500h-500v-500zM9 10v480h480v-480h-480z" />
    <glyph glyph-name="space" unicode=" " horiz-adv-x="278" 
 />
    <glyph glyph-name="exclam" unicode="!" horiz-adv-x="278" 
d="M212 722h-146l28 -478h90zM210 0v142h-142v-142h142z" />
    <glyph glyph-name="quotedbl" unicode="&#x22;" horiz-adv-x="333" 
d="M199 452h110v270h-110v-270zM24 452h110v270h-110v-270z" />
    <glyph glyph-name="numbersign" unicode="#" horiz-adv-x="556" 
d="M506 300h-86l18 122h98v94h-86l28 206h-96l-29 -206h-99l28 206h-96l-29 -206h-106v-94h94l-18 -122h-107v-94h94l-28 -206h96l29 206h99l-28 -206h96l29 206h99v94zM341 422l-18 -122h-99l18 122h99z" />
    <glyph glyph-name="dollar" unicode="$" horiz-adv-x="556" 
d="M19 127c12 -16.667 26.6641 -32.4971 43.9971 -47.4971s35.833 -28.5 55.5 -40.5s39.334 -21.333 59.001 -28s37.834 -10 54.501 -10v-115h78v114c29.333 0.666992 56.833 5.83398 82.5 15.501s48.167 23.167 67.5 40.5c41.333 37.333 62 85.333 62 144
c0 32 -5.5 60.333 -16.5 85s-26.167 45.667 -45.5 63s-41.166 32.166 -65.499 44.499s-52.5 24.166 -84.5 35.499v184c22 -2 42 -9.33301 60 -22s35.333 -29 52 -49l78 75c-24.667 27.333 -52.5 50.166 -83.5 68.499s-66.5 30.833 -106.5 37.5v64h-78v-64
c-57.333 -2.66699 -105 -21.167 -143 -55.5s-57 -80.166 -57 -137.499c0 -52.667 18.833 -96.834 56.5 -132.501s85.5 -61.834 143.5 -78.501v-206c-24 4.66699 -46.833 15.5 -68.5 32.5s-41.167 37.167 -58.5 60.5zM231.997 450.003c-24 7.33301 -44.333 18.832 -61 34.499
s-25 33.834 -25 54.501c0 24 8.33301 43 25 57s37 21.333 61 22v-168zM309.997 295.002l1 -0.000976562c30 -13.333 52.333 -26.666 67 -39.999s22 -33 22 -59c0 -25.333 -8.5 -46 -25.5 -62s-38.5 -24 -64.5 -24v185z" />
    <glyph glyph-name="percent" unicode="%" horiz-adv-x="889" 
d="M214 722c-24.667 0 -48 -4.66699 -70 -14s-41.333 -22.333 -58 -39s-29.5 -36 -38.5 -58s-13.5 -45 -13.5 -69s4.5 -47 13.5 -69s21.833 -41.333 38.5 -58s36 -29.667 58 -39s45.333 -14 70 -14s48 4.66699 70 14s41.333 22.333 58 39s29.5 36 38.5 58s13.5 45 13.5 69
s-4.5 47 -13.5 69s-21.833 41.333 -38.5 58s-36 29.667 -58 39s-45.333 14 -70 14zM214 624c22 0 41.167 -8.16699 57.5 -24.5s24.5 -35.5 24.5 -57.5s-8.16699 -41.167 -24.5 -57.5s-35.5 -24.5 -57.5 -24.5s-41.167 8.16699 -57.5 24.5s-24.5 35.5 -24.5 57.5
s8.16699 41.167 24.5 57.5s35.5 24.5 57.5 24.5zM675 360c-24.667 0 -48 -4.66699 -70 -14s-41.333 -22.333 -58 -39s-29.5 -36 -38.5 -58s-13.5 -45 -13.5 -69s4.5 -47 13.5 -69s21.833 -41.333 38.5 -58s36 -29.667 58 -39s45.333 -14 70 -14s48 4.66699 70 14
s41.333 22.333 58 39s29.5 36 38.5 58s13.5 45 13.5 69s-4.5 47 -13.5 69s-21.833 41.333 -38.5 58s-36 29.667 -58 39s-45.333 14 -70 14zM675 262c22 0 41.167 -8.16699 57.5 -24.5s24.5 -35.5 24.5 -57.5s-8.16699 -41.167 -24.5 -57.5s-35.5 -24.5 -57.5 -24.5
s-41.167 8.16699 -57.5 24.5s-24.5 35.5 -24.5 57.5s8.16699 41.167 24.5 57.5s35.5 24.5 57.5 24.5zM197 -10h85l415 742h-85z" />
    <glyph glyph-name="ampersand" unicode="&#x26;" horiz-adv-x="667" 
d="M274 648c20 0 35.668 -6.83398 47.001 -20.501s17 -29.167 17 -46.5c0 -22.667 -6 -42 -18 -58s-29.667 -34 -53 -54c-6.66699 -6 -11.667 -10.333 -15 -13c-14 23.333 -24.333 43.333 -31 60s-10 34.667 -10 54c0 22.667 5.66699 41.334 17 56.001s26.666 22 45.999 22z
M507.001 362.999c-6 -21.333 -13.665 -41.8281 -22.998 -61.4951s-22.333 -44.167 -39 -73.5l-3 -6c-46.667 45.333 -89.667 94.333 -129 147l6 5c21.333 16.667 39.166 31.167 53.499 43.5s27.5 26.166 39.5 41.499s21.667 32.166 29 50.499s11 38.166 11 59.499
c0 46 -16.167 84.667 -48.5 116s-72.833 47 -121.5 47c-52.667 0 -96.667 -15.333 -132 -46s-53 -75.334 -53 -134.001c0 -28.667 4.66699 -55.167 14 -79.5s24.333 -51.833 45 -82.5c-40 -26 -70.333 -54.167 -91 -84.5s-31 -68.833 -31 -115.5
c0 -64.667 21.333 -114.167 64 -148.5s99.667 -51.5 171 -51.5c34.667 0 67.5 6.5 98.5 19.5s58.5 31.167 82.5 54.5c33.333 -28.667 63.166 -48.167 89.499 -58.5s57.166 -15.5 92.499 -15.5v122c-33.333 3.33301 -66.666 16.666 -99.999 39.999
c29.333 46.667 58 106.667 86 180zM172.003 208.004c0 19.333 4.33301 35.833 13 49.5s21.667 27.167 39 40.5c46 -58.667 94 -110 144 -154c-10 -12 -23.5 -21.667 -40.5 -29s-34.5 -11 -52.5 -11c-28.667 0 -53 9 -73 27s-30 43.667 -30 77z" />
    <glyph glyph-name="quotesingle" unicode="'" horiz-adv-x="222" 
d="M56 452h110v270h-110v-270z" />
    <glyph glyph-name="parenleft" unicode="(" horiz-adv-x="333" 
d="M304 -84c-44.667 63.333 -79.834 127.167 -105.501 191.5s-38.5 136.5 -38.5 216.5s12.833 152.167 38.5 216.5s60.834 128.166 105.501 191.499h-118c-42.667 -59.333 -76 -123.666 -100 -192.999s-36 -141 -36 -215s12 -145.5 36 -214.5s57.333 -133.5 100 -193.5h118z
" />
    <glyph glyph-name="parenright" unicode=")" horiz-adv-x="333" 
d="M147 -84c42.667 60 76 124.499 100 193.499s36 140.5 36 214.5s-12 145.667 -36 215s-57.333 133.666 -100 192.999h-118c45.333 -63.333 80.666 -127.166 105.999 -191.499s38 -136.5 38 -216.5s-12.667 -152.167 -38 -216.5s-60.666 -128.166 -105.999 -191.499h118z
" />
    <glyph glyph-name="asterisk" unicode="*" 
d="M200 722l29 -145l-4 -5l-133 68l-26 -89l146 -18l2 -6l-106 -104l75 -57l64 134h6l64 -134l75 57l-106 104l2 6l146 18l-26 89l-133 -68l-4 5l29 145h-100z" />
    <glyph glyph-name="plus" unicode="+" horiz-adv-x="600" 
d="M239 333h-211v-122h211v-211h122v211h211v122h-211v211h-122v-211z" />
    <glyph glyph-name="comma" unicode="," horiz-adv-x="278" 
d="M77 -148h70l63 148v142h-142v-142h60z" />
    <glyph glyph-name="hyphen" unicode="-" horiz-adv-x="333" 
d="M289 217v110h-246v-110h246z" />
    <glyph glyph-name="period" unicode="." horiz-adv-x="278" 
d="M210 0v142h-142v-142h142z" />
    <glyph glyph-name="slash" unicode="/" horiz-adv-x="278" 
d="M336 732h-122l-272 -742h122z" />
    <glyph glyph-name="zero" unicode="0" horiz-adv-x="556" 
d="M36 240c0 -78 21 -139.167 63 -183.5s101.667 -66.5 179 -66.5s137 22.167 179 66.5s63 105.5 63 183.5v242c0 78 -21 139.167 -63 183.5s-101.667 66.5 -179 66.5s-137 -22.167 -179 -66.5s-63 -105.5 -63 -183.5v-242zM168 467c0 56.667 8.66699 96 26 118
s45.333 33 84 33s66.667 -11 84 -33s26 -61.333 26 -118v-212c0 -56.667 -8.66699 -96 -26 -118s-45.333 -33 -84 -33s-66.667 11 -84 33s-26 61.333 -26 118v212z" />
    <glyph glyph-name="one" unicode="1" horiz-adv-x="556" 
d="M235 0h126.001v732h-79c-2.66699 -3.33301 -5.66699 -7.33301 -9 -12c-18.667 -24.667 -37.334 -43.5 -56.001 -56.5s-49.667 -23.833 -93 -32.5v-79h111v-552z" />
    <glyph glyph-name="two" unicode="2" horiz-adv-x="556" 
d="M495 0l0.000976562 114.004h-288c16.667 17.333 45 44.666 85 81.999c33.333 30.667 61.166 57.334 83.499 80.001s43.666 47.167 63.999 73.5s36.5 54.166 48.5 83.499s18 59 18 89c0 67.333 -21.5 119.166 -64.5 155.499s-100.833 54.5 -173.5 54.5
c-34 0 -65 -5.33301 -93 -16s-51.833 -25.334 -71.5 -44.001s-34.667 -40.167 -45 -64.5s-15.5 -49.833 -15.5 -76.5v-34h132v26c0 28 9 50.833 27 68.5s43.333 26.5 76 26.5c31.333 0 55.166 -9 71.499 -27s24.5 -42 24.5 -72c0 -20 -4.16699 -39.333 -12.5 -58
s-23.666 -41.334 -45.999 -68.001s-54.166 -60.5 -95.499 -101.5l-180 -174.5v-117h455z" />
    <glyph glyph-name="three" unicode="3" horiz-adv-x="556" 
d="M34 212c0 -69.333 20.335 -123.669 61.002 -163.002s100.667 -59 180 -59c68 0 124.167 18.667 168.5 56s66.5 90.333 66.5 159c0 42.667 -8.16699 78.834 -24.5 108.501s-42.833 51.5 -79.5 65.5c27.333 14 48.666 35.5 63.999 64.5s23 59.833 23 92.5
c0 62.667 -20.5 111 -61.5 145s-95.167 51 -162.5 51c-64 0 -116.5 -17 -157.5 -51s-61.833 -83 -62.5 -147h132c1.33301 24.667 10 44.834 26 60.501s36.333 23.5 61 23.5c29.333 0 52.166 -8 68.499 -24s24.5 -37 24.5 -63c0 -33.333 -9.83301 -57.166 -29.5 -71.499
s-52.834 -21.5 -99.501 -21.5v-114c50.667 -0.666992 87.667 -9.66699 111 -27s35 -46 35 -86c0 -32 -9.16699 -57.833 -27.5 -77.5s-44.166 -29.5 -77.499 -29.5c-36.667 0 -63.667 8.66699 -81 26s-26 44.666 -26 81.999h-132z" />
    <glyph glyph-name="four" unicode="4" horiz-adv-x="556" 
d="M110 292l205 282h2v-282h-207zM0 306v-116h317v-190h126v190h101v102h-101v430h-137z" />
    <glyph glyph-name="five" unicode="5" horiz-adv-x="556" 
d="M35 207c0 -28.667 4.16797 -55.833 12.501 -81.5s21.666 -48.667 39.999 -69s42.833 -36.5 73.5 -48.5s67.667 -18 111 -18c84 0 145.333 23 184 69s58 112.333 58 199c0 78.667 -16.167 139 -48.5 181s-85.166 63 -158.499 63c-25.333 0 -48.333 -3.66699 -69 -11
s-41.334 -18.333 -62.001 -33v150h303v114h-417v-378h109c27.333 37.333 62.666 56 105.999 56c36.667 0 63.334 -11.667 80.001 -35s25 -58 25 -104c0 -53.333 -8.33301 -92.833 -25 -118.5s-45.667 -38.5 -87 -38.5c-32 0 -57.167 8.66699 -75.5 26s-27.5 43 -27.5 77
h-132z" />
    <glyph glyph-name="six" unicode="6" horiz-adv-x="556" 
d="M168 295c20.667 19.333 39.5 34.001 56.5 44.001s34.833 15 53.5 15c32 0 57.333 -9.83301 76 -29.5s28 -48.834 28 -87.501c0 -42 -8.83301 -74.667 -26.5 -98s-43.5 -35 -77.5 -35c-38.667 0 -66.667 11 -84 33s-26 61.333 -26 118v40zM501 533.001
c-4.66699 64 -27.002 113.168 -67.002 147.501s-92 51.5 -156 51.5c-77.333 0 -137 -22.167 -179 -66.5s-63 -105.5 -63 -183.5v-242c0 -78 21 -139.167 63 -183.5s101.667 -66.5 179 -66.5c79.333 0 138.5 22.667 177.5 68s58.5 106.666 58.5 183.999
c0 61.333 -16.667 112.333 -50 153s-80.333 61 -141 61c-28 0 -55 -4.83301 -81 -14.5s-50.667 -23.5 -74 -41.5v67c0 56.667 8.66699 96 26 118s45.333 33 84 33c24.667 0 45.834 -8 63.501 -24s26.834 -36.333 27.501 -61h132z" />
    <glyph glyph-name="seven" unicode="7" horiz-adv-x="556" 
d="M30 608h317l-200 -608h144l195 656v66h-456v-114z" />
    <glyph glyph-name="eight" unicode="8" horiz-adv-x="556" 
d="M388 209c0 -33.333 -8.66699 -59.166 -26 -77.499s-45.333 -27.5 -84 -27.5s-66.667 9.16699 -84 27.5s-26 44.166 -26 77.499s10 60.166 30 80.499s46.667 30.5 80 30.5s60 -10.167 80 -30.5s30 -47.166 30 -80.499zM370 525c0 -25.333 -9 -46.833 -27 -64.5
s-39.667 -26.5 -65 -26.5s-47 8.83301 -65 26.5s-27 39.167 -27 64.5c0 26 8.66699 48 26 66s39.333 27 66 27s48.667 -9 66 -27s26 -40 26 -66zM520 205c0 42.667 -8.3291 78.667 -24.9961 108s-43.334 51.333 -80.001 66c27.333 14 48.666 35.5 63.999 64.5
s23 59.833 23 92.5c0 64 -20.833 112.667 -62.5 146s-95.5 50 -161.5 50s-119.833 -16.667 -161.5 -50s-62.5 -82 -62.5 -146c0 -32.667 7.66699 -63.5 23 -92.5s36.666 -50.5 63.999 -64.5c-36.667 -14.667 -63.334 -36.667 -80.001 -66s-25 -65.333 -25 -108
c0 -68.667 22.5 -121.667 67.5 -159s103.167 -56 174.5 -56s129.5 18.667 174.5 56s67.5 90.333 67.5 159z" />
    <glyph glyph-name="nine" unicode="9" horiz-adv-x="556" 
d="M388 427c-20.667 -19.333 -39.5 -34.001 -56.5 -44.001s-34.833 -15 -53.5 -15c-32 0 -57.333 9.83301 -76 29.5s-28 48.834 -28 87.501c0 42 8.83301 74.667 26.5 98s43.5 35 77.5 35c38.667 0 66.667 -11 84 -33s26 -61.333 26 -118v-40zM55 188.999
c4.66699 -64 26.999 -113.168 66.999 -147.501s92 -51.5 156 -51.5c77.333 0 137 22.167 179 66.5s63 105.5 63 183.5v242c0 78 -21 139.167 -63 183.5s-101.667 66.5 -179 66.5c-78.667 0 -137.667 -22.667 -177 -68s-59 -106.666 -59 -183.999
c0 -61.333 16.667 -112.333 50 -153s80.333 -61 141 -61c28 0 55 5 81 15s50.667 23.667 74 41v-67c0 -56.667 -8.66699 -96 -26 -118s-45.333 -33 -84 -33c-24.667 0 -45.667 8 -63 24s-26.666 36.333 -27.999 61h-132z" />
    <glyph glyph-name="colon" unicode=":" horiz-adv-x="278" 
d="M210 0v142h-142v-142h142zM210 300v142h-142v-142h142z" />
    <glyph glyph-name="semicolon" unicode=";" horiz-adv-x="278" 
d="M77 -148h70l63 148v142h-142v-142h60zM210 300v142h-142v-142h142z" />
    <glyph glyph-name="less" unicode="&#x3c;" horiz-adv-x="600" 
d="M572 108l-389 164l389 164v117l-544 -233v-96l544 -233v117z" />
    <glyph glyph-name="equal" unicode="=" horiz-adv-x="600" 
d="M572 455h-544v-122h544v122zM572 211h-544v-122h544v122z" />
    <glyph glyph-name="greater" unicode="&#x3e;" horiz-adv-x="600" 
d="M28 -9l544 233v96l-544 233v-117l389 -164l-389 -164v-117z" />
    <glyph glyph-name="question" unicode="?" horiz-adv-x="444" 
d="M125 542c1.33301 22 10.667 42.167 28 60.5s36 27.5 56 27.5c16.667 0 31.334 -5.5 44.001 -16.5s19 -24.833 19 -41.5c0 -13.333 -5.66699 -29.833 -17 -49.5s-28.333 -45.5 -51 -77.5c-20.667 -28.667 -35.834 -51.167 -45.501 -67.5s-14.5 -29.5 -14.5 -39.5v-98h110
v50c0 17.333 5.66699 35.5 17 54.5s28.333 43.167 51 72.5c25.333 32 44.333 58.833 57 80.5s19 43.167 19 64.5c0 52.667 -18.5 94.167 -55.5 124.5s-80.833 45.5 -131.5 45.5s-93.667 -13.833 -129 -41.5s-59.333 -66.5 -72 -116.5zM270.001 0v142h-142v-142h142z" />
    <glyph glyph-name="at" unicode="@" horiz-adv-x="800" 
d="M411 452c23.333 0 42.333 -7.5 57 -22.5s22 -34.5 22 -58.5c0 -31.333 -10.333 -59 -31 -83s-46.667 -36 -78 -36c-23.333 0 -42 7.66699 -56 23s-21 35.333 -21 60c0 30 10.333 57 31 81s46 36 76 36zM518 492c-26.667 41.333 -66.334 61.9971 -119.001 61.9971
c-30.667 0 -58.667 -6.5 -84 -19.5s-47 -30.667 -65 -53s-31.833 -47.666 -41.5 -75.999s-14.5 -57.5 -14.5 -87.5c0 -22.667 4.33301 -44.834 13 -66.501s20.334 -40.667 35.001 -57s31.667 -29.166 51 -38.499s39.666 -14 60.999 -14c17.333 0 35 5.16699 53 15.5
s33.667 22.833 47 37.5l2 -1c0.666992 -16 6.16699 -28.667 16.5 -38s22.833 -14 37.5 -14c18 0 41.167 5.16699 69.5 15.5s56.5 26.833 84.5 49.5s51.5 52.667 70.5 90s28.5 81.666 28.5 132.999c0 44.667 -9.5 85.667 -28.5 123s-44.833 69.5 -77.5 96.5
s-69.834 47.5 -111.501 61.5s-84.5 21 -128.5 21c-51.333 0 -100.166 -9.33301 -146.499 -28s-87 -45 -122 -79s-62.333 -73.667 -82 -119s-29.5 -94 -29.5 -146s10 -100.833 30 -146.5s47.667 -85.167 83 -118.5s76.5 -59.166 123.5 -77.499s96.5 -27.5 148.5 -27.5
c61.333 0 117.5 13.333 168.5 40s93.833 64.667 128.5 114h-92c-26 -22 -56 -39.167 -90 -51.5s-69.667 -18.5 -107 -18.5c-42 0 -80.833 6.66699 -116.5 20s-66.5 32.5 -92.5 57.5s-46.167 55.333 -60.5 91s-21.5 74.834 -21.5 117.501c0 40.667 6.5 78.667 19.5 114
s31.5 66 55.5 92s53.167 46.167 87.5 60.5s71.833 21.5 112.5 21.5c78.667 0 142.5 -21.5 191.5 -64.5s73.5 -103.5 73.5 -181.5c0 -50 -10.5 -89.5 -31.5 -118.5s-44.167 -43.5 -69.5 -43.5c-10 0 -15 6.33301 -15 19c0 6 1.66699 15.333 5 28
c0.666992 4.66699 1.33398 8.33398 2.00098 11.001l50 244h-90z" />
    <glyph glyph-name="A" unicode="A" horiz-adv-x="556" 
d="M278 566h2l67 -292h-137zM146 0l39 152h191l35 -152h132l-174 722h-177l-179 -722h133z" />
    <glyph glyph-name="B" unicode="B" horiz-adv-x="556" 
d="M62 0l202 0.000976562c75.333 0 134.5 17.333 177.5 52s64.5 86.667 64.5 156c0 44 -7.83301 78.5 -23.5 103.5s-43.167 49.833 -82.5 74.5c59.333 36 89 86 89 150c0 61.333 -20.167 107.666 -60.5 138.999s-97.833 47 -172.5 47h-194v-722zM200 322.001h48.001
c37.333 0 66.666 -8.66699 87.999 -26s32 -43 32 -77c0 -32 -9.5 -57.5 -28.5 -76.5s-46.167 -28.5 -81.5 -28.5h-58v208zM200.001 608.001l55 -0.000976562c32 0 56 -7.66699 72 -23s24 -36.666 24 -63.999c0 -24.667 -9.5 -45 -28.5 -61s-43.833 -24 -74.5 -24h-48v172z
" />
    <glyph glyph-name="C" unicode="C" horiz-adv-x="556" 
d="M188 508c0 38 7.66699 64.5 23 79.5s37.666 22.5 66.999 22.5c30 0 52.5 -7.5 67.5 -22.5s22.5 -41.5 22.5 -79.5v-20h138v2c0 43.333 -5.5 80.5 -16.5 111.5s-26.5 56.167 -46.5 75.5s-43.833 33.333 -71.5 42s-58.834 13 -93.501 13s-65.834 -4.33301 -93.501 -13
s-51.5 -22.667 -71.5 -42s-35.5 -44.5 -46.5 -75.5s-16.5 -68.167 -16.5 -111.5v-258c0 -43.333 5.5 -80.5 16.5 -111.5s26.5 -56.167 46.5 -75.5s43.833 -33.333 71.5 -42s58.834 -13 93.501 -13s65.834 4.33301 93.501 13s51.5 22.667 71.5 42s35.5 44.5 46.5 75.5
s16.5 68.167 16.5 111.5v30h-138v-48c0 -38 -7.5 -64.5 -22.5 -79.5s-37.5 -22.5 -67.5 -22.5c-29.333 0 -51.666 7.5 -66.999 22.5s-23 41.5 -23 79.5v294z" />
    <glyph glyph-name="D" unicode="D" horiz-adv-x="556" 
d="M62 0h192c81.333 0 143 19.5 185 58.5s64.333 102.833 67 191.5v222c-2.66699 88.667 -25 152.5 -67 191.5s-103.667 58.5 -185 58.5h-192v-722zM200 600l47.999 -0.000976562c42.667 0 73.334 -11.167 92.001 -33.5s28 -59.166 28 -110.499v-190c0 -52 -10 -89 -30 -111
s-50 -33 -90 -33h-48v478z" />
    <glyph glyph-name="E" unicode="E" 
d="M450 0v122h-250v190h183v122h-183v166h240v122h-378v-722h388z" />
    <glyph glyph-name="F" unicode="F" horiz-adv-x="444" 
d="M200 0v312h174v122h-174v166h222v122h-360v-722h138z" />
    <glyph glyph-name="G" unicode="G" horiz-adv-x="556" 
d="M428 0l71.998 0.000976562v370h-235v-114h97v-44c0 -30.667 -7.5 -55 -22.5 -73s-35.5 -27 -61.5 -27c-29.333 0 -51.666 7.5 -66.999 22.5s-23 41.5 -23 79.5v294c0 38 7.66699 64.5 23 79.5s37.666 22.5 66.999 22.5c26.667 0 47.334 -9.33301 62.001 -28
s22 -50.334 22 -95.001h138c-4.66699 163.333 -78.667 245 -222 245c-34.667 0 -65.834 -4.33301 -93.501 -13s-51.5 -22.667 -71.5 -42s-35.5 -44.5 -46.5 -75.5s-16.5 -68.167 -16.5 -111.5v-258c0 -43.333 5.5 -80.5 16.5 -111.5s26.5 -56.167 46.5 -75.5
s43.833 -33.333 71.5 -42s58.834 -13 93.501 -13c24.667 0 47.334 6 68.001 18s41 29.333 61 52z" />
    <glyph glyph-name="H" unicode="H" horiz-adv-x="611" 
d="M208 0v312h195v-312h138v722h-138v-288h-195v288h-138v-722h138z" />
    <glyph glyph-name="I" unicode="I" horiz-adv-x="278" 
d="M208 0v722h-138v-722h138z" />
    <glyph glyph-name="J" unicode="J" horiz-adv-x="333" 
d="M125 722l-0.000976562 -541c0 -26.667 -5.16699 -44.834 -15.5 -54.501s-31.166 -14.5 -62.499 -14.5c-4.66699 0 -12 0.666992 -22 2c-6 0.666992 -11 1 -15 1v-122c10 -1.33301 20.5 -2.16602 31.5 -2.49902s23.167 -0.5 36.5 -0.5c58.667 0 104.167 14.833 136.5 44.5
s48.5 69.167 48.5 118.5v569h-138z" />
    <glyph glyph-name="K" unicode="K" horiz-adv-x="556" 
d="M200 0v221l54 82l144 -303h155l-207 431l186 291h-151l-179 -298h-2v298h-138v-722h138z" />
    <glyph glyph-name="L" unicode="L" horiz-adv-x="444" 
d="M422 0v122h-222v600h-138v-722h360z" />
    <glyph glyph-name="M" unicode="M" horiz-adv-x="778" 
d="M188 0v568h2l147 -568h104l147 568h2v-568h118v722h-193l-125 -474h-2l-125 474h-193v-722h118z" />
    <glyph glyph-name="N" unicode="N" horiz-adv-x="611" 
d="M196 0v466h2l211 -466h132v722h-126v-428h-2l-192 428h-151v-722h126z" />
    <glyph glyph-name="O" unicode="O" horiz-adv-x="556" 
d="M50 232c0 -43.333 5.5 -80.5 16.5 -111.5s26.5 -56.167 46.5 -75.5s43.833 -33.333 71.5 -42s58.834 -13 93.501 -13s65.834 4.33301 93.501 13s51.5 22.667 71.5 42s35.5 44.5 46.5 75.5s16.5 68.167 16.5 111.5v258c0 43.333 -5.5 80.5 -16.5 111.5
s-26.5 56.167 -46.5 75.5s-43.833 33.333 -71.5 42s-58.834 13 -93.501 13s-65.834 -4.33301 -93.501 -13s-51.5 -22.667 -71.5 -42s-35.5 -44.5 -46.5 -75.5s-16.5 -68.167 -16.5 -111.5v-258zM188 508c0 38 7.66699 64.5 23 79.5s37.666 22.5 66.999 22.5
c30 0 52.5 -7.5 67.5 -22.5s22.5 -41.5 22.5 -79.5v-294c0 -38 -7.5 -64.5 -22.5 -79.5s-37.5 -22.5 -67.5 -22.5c-29.333 0 -51.666 7.5 -66.999 22.5s-23 41.5 -23 79.5v294z" />
    <glyph glyph-name="P" unicode="P" horiz-adv-x="556" 
d="M208 0v290.002h61c84 0 147.167 18.667 189.5 56s63.5 90.666 63.5 159.999s-21.167 122.666 -63.5 159.999s-105.5 56 -189.5 56h-199v-722h138zM208 608.002h74c68 0 102 -34 102 -102s-34 -102 -102 -102h-74v204z" />
    <glyph glyph-name="Q" unicode="Q" horiz-adv-x="556" 
d="M549 67c-27.333 0.666992 -51.3311 8.66699 -71.998 24c19.333 36.667 29 83.667 29 141v258c0 43.333 -5.5 80.5 -16.5 111.5s-26.5 56.167 -46.5 75.5s-43.833 33.333 -71.5 42s-58.834 13 -93.501 13s-65.834 -4.33301 -93.501 -13s-51.5 -22.667 -71.5 -42
s-35.5 -44.5 -46.5 -75.5s-16.5 -68.167 -16.5 -111.5v-258c0 -43.333 5.5 -80.5 16.5 -111.5s26.5 -56.167 46.5 -75.5s43.833 -33.333 71.5 -42s58.834 -13 93.501 -13c50.667 0 92.667 9.33301 126 28c18.667 -22.667 39.667 -40.167 63 -52.5s50.666 -18.5 81.999 -18.5
v120zM269.002 180c10.667 -4 20.8311 -10.668 30.498 -20.001s19.834 -21.666 30.501 -36.999c-12.667 -7.33301 -30 -11 -52 -11c-29.333 0 -51.666 7.5 -66.999 22.5s-23 41.5 -23 79.5v294c0 38 7.66699 64.5 23 79.5s37.666 22.5 66.999 22.5c30 0 52.5 -7.5 67.5 -22.5
s22.5 -41.5 22.5 -79.5v-274h-2c-12.667 18.667 -26.667 33.667 -42 45s-33.666 18.333 -54.999 21v-120z" />
    <glyph glyph-name="R" unicode="R" horiz-adv-x="556" 
d="M534 0l-136 322.001c37.333 14 64.833 36.5 82.5 67.5s26.5 69.833 26.5 116.5c0 69.333 -20.5 122.666 -61.5 159.999s-102.167 56 -183.5 56h-200v-722h138v294h66l120 -294h148zM200 608.001h71c31.333 0 55.5 -8.16699 72.5 -24.5s25.5 -41.5 25.5 -75.5
s-8.5 -59.167 -25.5 -75.5s-41.167 -24.5 -72.5 -24.5h-71v200z" />
    <glyph glyph-name="S" unicode="S" horiz-adv-x="556" 
d="M491 557c-12.667 53.333 -38 95.833 -76 127.5s-86.667 47.5 -146 47.5c-70 0 -123.667 -17.833 -161 -53.5s-56 -85.167 -56 -148.5c0 -26 5 -49.5 15 -70.5s23.167 -39.333 39.5 -55s33.833 -29.334 52.5 -41.001s42 -25.167 70 -40.5
c44.667 -24.667 77.667 -46.167 99 -64.5s32 -41.166 32 -68.499c0 -26 -8 -46.833 -24 -62.5s-36.333 -23.5 -61 -23.5c-23.333 0 -45.166 9.66699 -65.499 29s-34.166 49 -41.499 89l-136 -29c18 -68.667 47.333 -119.667 88 -153s90 -50 148 -50
c72 0 128.333 18.667 169 56s61 87.333 61 150c0 31.333 -5.66699 59.333 -17 84s-26.333 46.167 -45 64.5s-37.834 33.666 -57.501 45.999s-44.834 26.833 -75.501 43.5c-38.667 20.667 -67.167 38.334 -85.5 53.001s-27.5 32 -27.5 52c0 24.667 6.66699 44 20 58
s32 21 56 21s44 -7.66699 60 -23s29.667 -40 41 -74z" />
    <glyph glyph-name="T" unicode="T" 
d="M20 722v-122h161v-600h138v600h161v122h-460z" />
    <glyph glyph-name="U" unicode="U" horiz-adv-x="611" 
d="M70 722v-506c0 -76.667 20.667 -133.5 62 -170.5s99 -55.5 173 -55.5s131.833 18.5 173.5 55.5s62.5 93.833 62.5 170.5v506h-138v-505c0 -70 -32.667 -105 -98 -105c-64.667 0 -97 35 -97 105v505h-138z" />
    <glyph glyph-name="V" unicode="V" horiz-adv-x="556" 
d="M200 0h157l184 722h-135l-126 -516h-2l-127 516h-136z" />
    <glyph glyph-name="W" unicode="W" horiz-adv-x="833" 
d="M174 0h132l109 494h2l101 -494h133l158 722h-129l-96 -472h-2l-100 472h-133l-99 -472h-2l-97 472h-128z" />
    <glyph glyph-name="X" unicode="X" horiz-adv-x="556" 
d="M174 722h-148l177 -342l-194 -380h149l120 255l120 -255h149l-192 380l175 342h-148l-104 -216z" />
    <glyph glyph-name="Y" unicode="Y" horiz-adv-x="556" 
d="M159 722h-147l197 -430v-292h138v292l197 430h-147l-117 -291z" />
    <glyph glyph-name="Z" unicode="Z" 
d="M61 600h245l-273 -483v-117h434v122h-279l273 484v116h-400v-122z" />
    <glyph glyph-name="bracketleft" unicode="[" horiz-adv-x="333" 
d="M284 -74v60h-124v676h124v60h-234v-796h234z" />
    <glyph glyph-name="backslash" unicode="\" horiz-adv-x="278" 
d="M214 -10h122l-272 742h-122z" />
    <glyph glyph-name="bracketright" unicode="]" horiz-adv-x="333" 
d="M49 722v-60h124v-676h-124v-60h234v796h-234z" />
    <glyph glyph-name="asciicircum" unicode="^" horiz-adv-x="600" 
d="M169 320l131 282l129 -282h119l-194 402h-108l-194 -402h117z" />
    <glyph glyph-name="underscore" unicode="_" 
d="M500 -125v50h-500v-50h500z" />
    <glyph glyph-name="grave" unicode="`" horiz-adv-x="278" 
d="M-24 756l147 -146h101l-93 146h-155z" />
    <glyph glyph-name="a" unicode="a" 
d="M174 385c0 19.333 6.83398 35.332 20.501 47.999s30.167 19 49.5 19s35 -5.33301 47 -16s18 -27 18 -49v-40c-43.333 -12.667 -81.333 -25.667 -114 -39s-61.167 -28.666 -85.5 -45.999s-43.333 -37.666 -57 -60.999s-20.5 -50.333 -20.5 -81c0 -42.667 11 -75 33 -97
s52.667 -33 92 -33c30 0 57.5 5.5 82.5 16.5s47.5 26.5 67.5 46.5c1.33301 -5.33301 3 -14.333 5 -27c1.33301 -10.667 2.66602 -19.334 3.99902 -26.001h126c-4.66699 16.667 -7 31.334 -7 44.001v345c0 51.333 -14.833 91.666 -44.5 120.999s-76.5 44 -140.5 44
c-54.667 0 -101 -13.833 -139 -41.5s-59 -70.167 -63 -127.5h126zM309.001 133.999c-16.667 -16.667 -32.167 -29.167 -46.5 -37.5s-30.5 -12.5 -48.5 -12.5c-17.333 0 -31 5 -41 15s-15 24 -15 42c0 26 14.333 49.5 43 70.5s64.667 39.167 108 54.5v-132z" />
    <glyph glyph-name="b" unicode="b" 
d="M186 421c24 26 49.333 39 76 39c19.333 0 34.5 -9.16699 45.5 -27.5s16.5 -52.5 16.5 -102.5v-116c0 -50 -5.5 -84.167 -16.5 -102.5s-26.167 -27.5 -45.5 -27.5c-26.667 0 -52 13 -76 39v298zM176 0v66.001h2c12.667 -19.333 31.667 -36.833 57 -52.5s51 -23.5 77 -23.5
c48 0 83 18 105 54s33 90 33 162v132c0 72 -11 126 -33 162s-57 54 -105 54c-16.667 0 -34.167 -4.33301 -52.5 -13s-42.833 -24.334 -73.5 -47.001v228h-126v-722h116z" />
    <glyph glyph-name="c" unicode="c" 
d="M449 356c-0.666992 67.333 -18.168 117.167 -52.501 149.5s-83.166 48.5 -146.499 48.5c-64.667 0 -114.167 -16.833 -148.5 -50.5s-51.5 -85.5 -51.5 -155.5v-152c0 -70 17.167 -121.833 51.5 -155.5s83.833 -50.5 148.5 -50.5s114.167 16.833 148.5 50.5
s51.5 85.5 51.5 155.5v2h-126v-34c0 -20.667 -6.66699 -36.5 -20 -47.5s-31.333 -16.5 -54 -16.5s-40.667 5.5 -54 16.5s-20 26.833 -20 47.5v216c0 20.667 6.66699 36.5 20 47.5s31.333 16.5 54 16.5s40.667 -5.5 54 -16.5s20 -26.833 20 -47.5v-24h125z" />
    <glyph glyph-name="d" unicode="d" 
d="M314 123c-24 -26 -49.333 -39 -76 -39c-19.333 0 -34.5 9.16699 -45.5 27.5s-16.5 52.5 -16.5 102.5v116c0 50 5.5 84.167 16.5 102.5s26.167 27.5 45.5 27.5c26.667 0 52 -13 76 -39v-298zM440 0v721.999h-126v-228c-30.667 22.667 -55.167 38.334 -73.5 47.001
s-35.833 13 -52.5 13c-48 0 -83 -18 -105 -54s-33 -90 -33 -162v-132c0 -72 11 -126 33 -162s57 -54 105 -54c26 0 51.833 7.83301 77.5 23.5s44.5 33.167 56.5 52.5h2v-66h116z" />
    <glyph glyph-name="e" unicode="e" 
d="M450 242l-0.000976562 127c0 55.333 -18.667 100 -56 134s-85.333 51 -144 51c-60.667 0 -109.167 -17.333 -145.5 -52s-54.5 -81.667 -54.5 -141v-178c0 -59.333 18.167 -106.333 54.5 -141s84.833 -52 145.5 -52c62.667 0 110.834 15.5 144.501 46.5
s52.167 74.833 55.5 131.5h-126c0 -22.667 -6 -41 -18 -55s-30.667 -21 -56 -21c-22 0 -39.833 6.5 -53.5 19.5s-20.5 32.5 -20.5 58.5v72h274zM175.999 344v30c0 24.667 6.16699 43.834 18.5 57.501s30.833 20.5 55.5 20.5s43.167 -6.83301 55.5 -20.5
s18.5 -32.834 18.5 -57.501v-30h-148z" />
    <glyph glyph-name="f" unicode="f" horiz-adv-x="278" 
d="M270 726c-28 4 -48 6 -60 6c-48.667 0 -85 -11.667 -109 -35s-36 -65 -36 -125v-52h-57v-102h57v-418h126v418h75v102h-75v56c0 14 3.5 25.167 10.5 33.5s17.833 12.5 32.5 12.5h36v104z" />
    <glyph glyph-name="g" unicode="g" 
d="M292 347c0 -46 -5 -76.667 -15 -92s-29 -23 -57 -23c-40 0 -60 34 -60 102c0 42.667 5 73 15 91s27 27 51 27c44 0 66 -35 66 -105zM478 554c-22 0 -41.501 -5.16211 -58.501 -15.4951s-34.167 -26.166 -51.5 -47.499c-15.333 19.333 -36.166 34.666 -62.499 45.999
s-52.833 17 -79.5 17c-34 0 -63 -5 -87 -15s-43.333 -24.167 -58 -42.5s-25.167 -39.833 -31.5 -64.5s-9.5 -52.334 -9.5 -83.001c0 -46.667 6.16699 -85 18.5 -115s33.5 -54.667 63.5 -74c-22.667 -14 -41 -28 -55 -42s-21 -30.333 -21 -49
c0 -16.667 4.66699 -31.167 14 -43.5s22 -23.5 38 -33.5l-8 -5c-20.667 -13.333 -37.167 -25.833 -49.5 -37.5s-18.5 -25.834 -18.5 -42.501c0 -30.667 18.167 -54.834 54.5 -72.501s87.5 -26.5 153.5 -26.5c75.333 0 134.5 11.5 177.5 34.5s64.5 57.167 64.5 102.5
c0 29.333 -6.5 52.833 -19.5 70.5s-30 30.667 -51 39s-42.667 13.833 -65 16.5s-49.833 4.66699 -82.5 6c-34 0.666992 -58.833 2.66699 -74.5 6s-23.5 10.666 -23.5 21.999c0 6 4.66699 13.667 14 23c4 4 6.66699 7 8 9c14.667 -4.66699 32 -7 52 -7
c61.333 0 107 18.333 137 55s45 89.667 45 159c0 12 -1 23.667 -3 35s-5 25.333 -9 42c0 1.33301 -1.33301 7.66602 -4 18.999c4 1.33301 9.33301 3 16 5c12 4.66699 21 7 27 7c4.66699 0 13.667 -1.66699 27 -5c6.66699 -2 10.667 -3 12 -3v110zM305.999 -35.9951
c18 -1.33301 30.167 -4.16797 36.5 -8.50098s9.5 -11.166 9.5 -20.499c0 -28.667 -31.667 -43 -95 -43c-76.667 0 -115 13.333 -115 40c0 8 1.83301 14.833 5.5 20.5s9.5 12.5 17.5 20.5l3 3z" />
    <glyph glyph-name="h" unicode="h" 
d="M186 0l-0.000976562 410.998c17.333 16 32.5 28.167 45.5 36.5s25.167 12.5 36.5 12.5c16.667 0 28.5 -5.16699 35.5 -15.5s10.5 -25.166 10.5 -44.499v-400h126v414c0 49.333 -9.66699 85 -29 107s-48.666 33 -87.999 33c-24 0 -46.833 -6.16699 -68.5 -18.5
s-44.5 -30.166 -68.5 -53.499v240h-126v-722h126z" />
    <glyph glyph-name="i" unicode="i" horiz-adv-x="278" 
d="M76 544v-544h126v544h-126zM202 638v114h-126v-114h126z" />
    <glyph glyph-name="j" unicode="j" horiz-adv-x="278" 
d="M76 544v-572c0 -17.333 -5.66699 -30 -17 -38s-30.333 -12 -57 -12v-111c14 -2 29.333 -3 46 -3c45.333 0 82.333 12.333 111 37s43 61.667 43 111v588h-126zM202 638v114h-126v-114h126z" />
    <glyph glyph-name="k" unicode="k" 
d="M192 0v166l63 89l92 -255h133l-136 360l125 184h-141l-134 -211h-2v389h-126v-722h126z" />
    <glyph glyph-name="l" unicode="l" horiz-adv-x="278" 
d="M76 0h126v722h-126v-722z" />
    <glyph glyph-name="m" unicode="m" horiz-adv-x="722" 
d="M60 0h126v411c8.66699 12 20.667 23.167 36 33.5s29.333 15.5 42 15.5c10.667 0 19 -3.5 25 -10.5s9 -18.833 9 -35.5v-414h126v411c8.66699 11.333 21.167 22.333 37.5 33s30.166 16 41.499 16c10.667 0 18.834 -3.33301 24.501 -10s8.5 -18.667 8.5 -36v-414h126v410
c0 96 -38.333 144 -115 144c-24.667 0 -47.167 -7 -67.5 -21s-42.5 -34.333 -66.5 -61c-7.33301 25.333 -19.333 45.333 -36 60s-36.667 22 -60 22c-24 0 -46 -6 -66 -18s-43 -30 -69 -54v62h-122v-544z" />
    <glyph glyph-name="n" unicode="n" 
d="M186 0l-0.00195312 410.999c17.333 16 32.5 28.167 45.5 36.5s25.167 12.5 36.5 12.5c16.667 0 28.5 -5.16699 35.5 -15.5s10.5 -25.166 10.5 -44.499v-400h126v414c0 49.333 -9.66699 85 -29 107s-48.666 33 -87.999 33c-24 0 -46.667 -6 -68 -18
s-45.666 -30 -72.999 -54v62h-122v-544h126z" />
    <glyph glyph-name="o" unicode="o" 
d="M50 196c0 -70 17.167 -121.833 51.5 -155.5s83.833 -50.5 148.5 -50.5s114.167 16.833 148.5 50.5s51.5 85.5 51.5 155.5v152c0 70 -17.167 121.833 -51.5 155.5s-83.833 50.5 -148.5 50.5s-114.167 -16.833 -148.5 -50.5s-51.5 -85.5 -51.5 -155.5v-152zM176 380
c0 20.667 6.66699 36.5 20 47.5s31.333 16.5 54 16.5s40.667 -5.5 54 -16.5s20 -26.833 20 -47.5v-216c0 -20.667 -6.66699 -36.5 -20 -47.5s-31.333 -16.5 -54 -16.5s-40.667 5.5 -54 16.5s-20 26.833 -20 47.5v216z" />
    <glyph glyph-name="p" unicode="p" 
d="M186 421c24 26 49.333 39 76 39c19.333 0 34.5 -9.16699 45.5 -27.5s16.5 -52.5 16.5 -102.5v-116c0 -50 -5.5 -84.167 -16.5 -102.5s-26.167 -27.5 -45.5 -27.5c-26.667 0 -52 13 -76 39v298zM60 544v-736h126v242c30.667 -22 55.167 -37.5 73.5 -46.5
s35.833 -13.5 52.5 -13.5c48 0 83 18 105 54s33 90 33 162v132c0 72 -11 126 -33 162s-57 54 -105 54c-26 0 -51.667 -7.83301 -77 -23.5s-44.333 -33.167 -57 -52.5h-2v66h-116z" />
    <glyph glyph-name="q" unicode="q" 
d="M314 123c-24 -26 -49.333 -39 -76 -39c-19.333 0 -34.5 9.16699 -45.5 27.5s-16.5 52.5 -16.5 102.5v116c0 50 5.5 84.167 16.5 102.5s26.167 27.5 45.5 27.5c26.667 0 52 -13 76 -39v-298zM324 544v-66h-2c-12 19.333 -30.833 36.833 -56.5 52.5s-51.5 23.5 -77.5 23.5
c-48 0 -83 -18 -105 -54s-33 -90 -33 -162v-132c0 -72 11 -126 33 -162s57 -54 105 -54c16.667 0 34.167 4.5 52.5 13.5s42.833 24.5 73.5 46.5v-242h126v736h-116z" />
    <glyph glyph-name="r" unicode="r" horiz-adv-x="333" 
d="M186 0l0.000976562 372c0 16 5.5 30 16.5 42s26.167 18 45.5 18c12.667 0 32.334 -4 59.001 -12l8 -2v136c-30.667 0 -56.334 -6.66699 -77.001 -20s-38.334 -34 -53.001 -62h-2v72h-123v-544h126z" />
    <glyph glyph-name="s" unicode="s" horiz-adv-x="444" 
d="M404 418c-16 42 -40.1689 75.167 -72.502 99.5s-71.5 36.5 -117.5 36.5c-48 0 -88.667 -13.167 -122 -39.5s-50 -63.833 -50 -112.5c0 -24.667 4.33301 -46.334 13 -65.001s19.834 -34.334 33.501 -47.001s28.167 -23.167 43.5 -31.5s35 -18.166 59 -29.499
c33.333 -15.333 57.833 -29 73.5 -41s23.5 -28 23.5 -48c0 -14.667 -5.5 -26.334 -16.5 -35.001s-25.833 -13 -44.5 -13c-24 0 -43.833 7.5 -59.5 22.5s-26.5 35.5 -32.5 61.5l-113 -31c28 -62 58.167 -103.333 90.5 -124s70.5 -31 114.5 -31c54 0 97.667 14.333 131 43
s50 69.334 50 122.001c0 22.667 -4.5 42.667 -13.5 60s-20.667 32.333 -35 45s-29.166 23.334 -44.499 32.001s-35.333 19 -60 31c-32.667 16 -56.334 29.333 -71.001 40s-22 24 -22 40c0 14 4.83301 25.667 14.5 35s21.834 14 36.501 14c41.333 0 70.333 -24.667 87 -74z
" />
    <glyph glyph-name="t" unicode="t" horiz-adv-x="278" 
d="M56 418l-0.00195312 -320.001c0 -37.333 12 -64.666 36 -81.999s57.333 -26 100 -26c28 0 52 1.66699 72 5v106c-5.33301 -0.666992 -13.666 -1 -24.999 -1c-17.333 0 -31.166 3.33301 -41.499 10s-15.5 16.667 -15.5 30v278h81v102h-81v148h-126v-148h-50v-102h50z" />
    <glyph glyph-name="u" unicode="u" 
d="M314 544l0.00195312 -410.999c-17.333 -15.333 -32.5 -27.333 -45.5 -36s-25.167 -13 -36.5 -13c-16 0 -27.667 5.16699 -35 15.5s-11 25.166 -11 44.499v400h-126v-414c0 -49.333 9.66699 -85 29 -107s48.666 -33 87.999 -33c24 0 46.667 6 68 18s45.666 30 72.999 54
v-62h122v544h-126z" />
    <glyph glyph-name="v" unicode="v" horiz-adv-x="444" 
d="M138 544h-126l148 -544h124l148 544h-126l-83 -350h-2z" />
    <glyph glyph-name="w" unicode="w" horiz-adv-x="667" 
d="M143 0h118l67 340h2l77 -340h118l128 544h-118l-69 -340h-2l-77 340h-108l-73 -340h-2l-73 340h-118z" />
    <glyph glyph-name="x" unicode="x" horiz-adv-x="444" 
d="M155 280l-149 -280h134l82 176l82 -176h134l-147 279l138 265h-134l-73 -156l-71 156h-134z" />
    <glyph glyph-name="y" unicode="y" horiz-adv-x="444" 
d="M32 -190c18.667 -1.33301 32 -2.00098 40 -2.00098c32 0 59.333 3.33301 82 10s42.167 17.334 58.5 32.001s30.5 34.334 42.5 59.001s23 55.667 33 93l145 542h-128l-79 -360h-2l-85 360h-128l126 -439c15.333 -54 23 -92.333 23 -115
c0 -14.667 -8.83301 -30.334 -26.5 -47.001s-39.167 -25 -64.5 -25c-16.667 0 -29 0.666992 -37 2v-110z" />
    <glyph glyph-name="z" unicode="z" horiz-adv-x="444" 
d="M51 434h207l-227 -326v-108h382v110h-231l231 326v108h-362v-110z" />
    <glyph glyph-name="braceleft" unicode="{" horiz-adv-x="333" 
d="M261 732l-79 -0.00195312c-30.667 0 -57.5 -10.333 -80.5 -31s-34.5 -50 -34.5 -88v-195c0 -23.333 -6.33301 -39.666 -19 -48.999s-30 -14 -52 -14v-60c22 0 39.333 -4.66699 52 -14s19 -25.666 19 -48.999v-197c0 -38 11.5 -67.333 34.5 -88s49.833 -31 80.5 -31h79v60
h-31c-35.333 0 -53 20.333 -53 61v196c0 27.333 -6.83301 48.333 -20.5 63s-33.167 24 -58.5 28v2c25.333 4 44.833 13.333 58.5 28s20.5 35.667 20.5 63v194c0 40.667 17.667 61 53 61h31v60z" />
    <glyph glyph-name="bar" unicode="|" horiz-adv-x="222" 
d="M50 -10h122v742h-122v-742z" />
    <glyph glyph-name="braceright" unicode="}" horiz-adv-x="333" 
d="M72 -84l79 0.00195312c30.667 0 57.5 10.333 80.5 31s34.5 50 34.5 88v195c0 23.333 6.33301 39.666 19 48.999s30 14 52 14v60c-22 0 -39.333 4.66699 -52 14s-19 25.666 -19 48.999v197c0 38 -11.5 67.333 -34.5 88s-49.833 31 -80.5 31h-79v-60h31
c35.333 0 53 -20.333 53 -61v-196c0 -27.333 6.83301 -48.333 20.5 -63s33.167 -24 58.5 -28v-2c-25.333 -4 -44.833 -13.333 -58.5 -28s-20.5 -35.667 -20.5 -63v-194c0 -40.667 -17.667 -61 -53 -61h-31v-60z" />
    <glyph glyph-name="asciitilde" unicode="~" horiz-adv-x="600" 
d="M510 369l-0.998047 -1.00293c-16.667 -25.333 -31.334 -44.5 -44.001 -57.5s-27.334 -19.5 -44.001 -19.5c-12.667 0 -26.667 2.66699 -42 8s-36 14 -62 26c-29.333 12.667 -54 22.334 -74 29.001s-38.667 10 -56 10c-32.667 0 -59.667 -8.66699 -81 -26
s-39.333 -39.666 -54 -66.999l39 -96c10.667 22.667 22.834 41.167 36.501 55.5s29.834 21.5 48.501 21.5c23.333 0 44.666 -3.16699 63.999 -9.5s40.333 -15.166 63 -26.499v0c24 -12.667 43.667 -22 59 -28s32.666 -9 51.999 -9c30 0 54.833 8 74.5 24
s39.5 38.667 59.5 68z" />
    <glyph glyph-name="exclamdown" unicode="&#xa1;" horiz-adv-x="278" 
d="M212 -178l-28 478h-90l-28 -478h146zM68 544v-142h142v142h-142z" />
    <glyph glyph-name="cent" unicode="&#xa2;" horiz-adv-x="556" 
d="M193 135c-4.66699 8.66699 -7 18.333 -7 29v216c0 42.667 27.333 64 82 64h2zM479 355.999c-0.666992 90.667 -32.667 149.333 -96 176l39 144h-89l-34 -124c-6.66699 1.33301 -17 2 -31 2c-68.667 0 -120.5 -16.667 -155.5 -50s-52.5 -85.333 -52.5 -156v-152
c0 -45.333 7.83301 -83 23.5 -113s38.167 -53 67.5 -69l-42 -154h89l36 132h3c14.667 -1.33301 25 -2 31 -2c70 0 122.833 16.667 158.5 50s53.5 85.333 53.5 156v2h-126v-34c0 -42.667 -28.667 -64 -86 -64c-5.33301 0 -9.33301 0.333008 -12 1l82 319
c10.667 -10.667 16 -24 16 -40v-24h125z" />
    <glyph glyph-name="sterling" unicode="&#xa3;" horiz-adv-x="556" 
d="M112 318c2 -16 2.99902 -30.668 2.99902 -44.001c0 -48 -7.83301 -86.667 -23.5 -116s-38.5 -44.666 -68.5 -45.999v-122c27.333 0 50.833 4.83301 70.5 14.5s43.167 26.5 70.5 50.5c22.667 -14 41.834 -25.167 57.501 -33.5s30.167 -14.833 43.5 -19.5
s26.666 -7.83398 39.999 -9.50098s29 -2.5 47 -2.5c36 0 66 6.16699 90 18.5s42.667 29 56 50s22.5 44.667 27.5 71s7.5 55.833 7.5 88.5h-120c-2 -38.667 -8.33301 -67.334 -19 -86.001s-28 -28 -52 -28c-22.667 0 -43.5 3.83301 -62.5 11.5s-39.5 18.5 -61.5 32.5
c4.66699 10.667 8.5 23.834 11.5 39.501s5.5 32.334 7.5 50.001s3.5 33.334 4.5 47.001s1.5 24.834 1.5 33.501h120v88h-132l-2 10c-8.66699 50 -13 88.667 -13 116s7.5 49.166 22.5 65.499s35.5 24.5 61.5 24.5c32 0 55.167 -8.83301 69.5 -26.5s22.833 -43.5 25.5 -77.5
h126c0 68.667 -19.167 121.5 -57.5 158.5s-96.833 55.5 -175.5 55.5c-58 0 -106.5 -17 -145.5 -51s-58.5 -82 -58.5 -144c0 -18.667 1.33301 -38.834 4 -60.501s6.33398 -45.167 11.001 -70.5h-83v-88h96z" />
    <glyph glyph-name="currency" unicode="&#xa4;" horiz-adv-x="556" 
d="M537 160l-56 56c14.667 17.333 25.834 38.833 33.501 64.5s11.5 52.5 11.5 80.5s-3.83301 54.833 -11.5 80.5s-18.834 47.167 -33.501 64.5l56 56l-58 58l-57 -58c-16 15.333 -36.833 27.333 -62.5 36s-52.834 13 -81.501 13s-55.834 -4.33301 -81.501 -13
s-46.5 -20.667 -62.5 -36l-57 58l-58 -58l56 -56c-14.667 -17.333 -25.834 -38.833 -33.501 -64.5s-11.5 -52.5 -11.5 -80.5s3.83301 -54.833 11.5 -80.5s18.834 -47.167 33.501 -64.5l-56 -56l58 -58l57 58c16 -15.333 36.833 -27.333 62.5 -36s52.834 -13 81.501 -13
s55.834 4.33301 81.501 13s46.5 20.667 62.5 36l57 -58zM414 361c0 -42 -12.333 -77.167 -37 -105.5s-57.667 -42.5 -99 -42.5s-74.333 14.167 -99 42.5s-37 63.5 -37 105.5c0 42.667 12.333 78 37 106s57.667 42 99 42s74.333 -14 99 -42s37 -63.333 37 -106z" />
    <glyph glyph-name="yen" unicode="&#xa5;" horiz-adv-x="556" 
d="M499 452h-86l125 270h-122l-136 -322l-140 322h-122l125 -270h-86v-88h126l32 -72h-158v-88h162v-204h118v204h162v88h-158l32 72h126v88z" />
    <glyph glyph-name="brokenbar" unicode="&#xa6;" horiz-adv-x="222" 
d="M50 -10h122v284h-122v-284zM50 448h122v284h-122v-284z" />
    <glyph glyph-name="section" unicode="&#xa7;" 
d="M402 652c-22 28 -45.499 48.3369 -70.499 61.0039s-54.5 19 -88.5 19c-38 0 -69.833 -11.167 -95.5 -33.5s-38.5 -49.833 -38.5 -82.5c0 -22 3.66699 -41.167 11 -57.5s19.333 -34.5 36 -54.5c-34 -5.33301 -59.833 -17.833 -77.5 -37.5s-26.5 -50.5 -26.5 -92.5
c0 -24.667 11.167 -50.834 33.5 -78.501s55.166 -61.834 98.499 -102.501c37.333 -35.333 65.166 -64 83.499 -86s27.5 -41.667 27.5 -59c0 -14.667 -5 -26.334 -15 -35.001s-22 -13 -36 -13c-20.667 0 -39 5.16699 -55 15.5s-27.667 23.166 -35 38.499l-68 -53
c25.333 -29.333 48.833 -50.833 70.5 -64.5s51.834 -20.5 90.501 -20.5c40 0 74 11.333 102 34s42 54 42 94c0 21.333 -4.66699 41.833 -14 61.5s-22 38.167 -38 55.5c32.667 6 59 18.667 79 38s30 44.666 30 75.999c0 34 -12.667 66.667 -38 98s-61.333 68.333 -108 111
c-33.333 30.667 -57.833 54.834 -73.5 72.501s-23.5 34.167 -23.5 49.5c0 12 4.5 22 13.5 30s20.167 12 33.5 12c16 0 30.5 -4.5 43.5 -13.5s25.833 -21.167 38.5 -36.5zM352.001 271.004c0 -12.667 -3.50195 -23.166 -10.502 -31.499s-16.5 -12.5 -28.5 -12.5
c-9.33301 0 -22.166 6.33301 -38.499 19s-37.833 33 -64.5 61c-24 24.667 -40.333 44 -49 58s-13 26 -13 36c0.666992 10.667 4.83398 19.5 12.501 26.5s16.5 10.5 26.5 10.5c19.333 0 52 -25 98 -75c27.333 -29.333 45.333 -49.833 54 -61.5s13 -21.834 13 -30.501z" />
    <glyph glyph-name="dieresis" unicode="&#xa8;" horiz-adv-x="278" 
d="M-16 732v-114h120v114h-120zM174 732v-114h120v114h-120z" />
    <glyph glyph-name="copyright" unicode="&#xa9;" horiz-adv-x="800" 
d="M400 -10c50 0 98.168 8.5 144.501 25.5s87.5 41.667 123.5 74s64.167 71.5 84.5 117.5s30.5 97.333 30.5 154s-10.333 108.167 -31 154.5s-48.834 85.5 -84.501 117.5s-76.667 56.5 -123 73.5s-94.5 25.5 -144.5 25.5s-98.167 -8.5 -144.5 -25.5
s-87.333 -41.667 -123 -74s-63.834 -71.5 -84.501 -117.5s-31 -97.333 -31 -154s10.333 -108.167 31 -154.5s48.834 -85.5 84.501 -117.5s76.667 -56.5 123 -73.5s94.5 -25.5 144.5 -25.5zM669.001 361c0 -40.667 -7 -78.5 -21 -113.5s-33.333 -65.167 -58 -90.5
s-53.334 -44.833 -86.001 -58.5s-67.334 -20.5 -104.001 -20.5c-37.333 0 -72.333 6.83301 -105 20.5s-61.334 33.167 -86.001 58.5s-43.834 55.333 -57.501 90s-20.5 72.667 -20.5 114s6.83301 79.333 20.5 114s32.834 64.667 57.501 90s53.334 44.833 86.001 58.5
s67.667 20.5 105 20.5c36.667 0 71.334 -6.83301 104.001 -20.5s61.334 -33.167 86.001 -58.5s44 -55.5 58 -90.5s21 -72.833 21 -113.5zM504.001 305c-2.66699 -23.333 -11.835 -40.667 -27.502 -52s-36.167 -17 -61.5 -17c-30.667 0 -55.5 12.333 -74.5 37
s-28.5 55.667 -28.5 93c0 39.333 8.83301 70.166 26.5 92.499s42.5 33.5 74.5 33.5c23.333 0 43.333 -5.16699 60 -15.5s27 -26.5 31 -48.5h86c-8 48.667 -28 86.167 -60 112.5s-71 39.5 -117 39.5c-62.667 0 -112.5 -20.167 -149.5 -60.5s-55.5 -92.166 -55.5 -155.499
c0 -62 18.667 -113.333 56 -154c18.667 -19.333 40.834 -34.5 66.501 -45.5s53.834 -16.5 84.501 -16.5c44.667 0 83.667 13.833 117 41.5s54 66.167 62 115.5h-90z" />
    <glyph glyph-name="ordfeminine" unicode="&#xaa;" horiz-adv-x="300" 
d="M106 627c0 10 4 18.332 12 24.999s18 10 30 10c22.667 0 34 -10 34 -30v-22c-55.333 -16.667 -97.833 -35.167 -127.5 -55.5s-44.5 -47.833 -44.5 -82.5c0 -26 7.16699 -45.5 21.5 -58.5s34.166 -19.5 59.499 -19.5c20 0 38 3.5 54 10.5s29.333 16.167 40 27.5
c0.666992 -4.66699 1.33398 -9 2.00098 -13c1.33301 -8.66699 2.33301 -15 3 -19h86c-2.66699 10.667 -4 19.334 -4 26.001v207c0 31.333 -9.66699 55.666 -29 72.999s-50 26 -92 26c-37.333 0 -67.666 -7.66699 -90.999 -23c-12.667 -8.66699 -22.834 -19.667 -30.501 -33
s-12.167 -29.666 -13.5 -48.999h90zM182 489.999c-13.333 -20 -31.333 -30 -54 -30c-8 0 -14.667 2.16699 -20 6.5s-8 10.5 -8 18.5c0 13.333 7 24.5 21 33.5s34.333 18.833 61 29.5v-58z" />
    <glyph glyph-name="guillemotleft" unicode="&#xab;" horiz-adv-x="556" 
d="M386 112h110l-122 160l122 160h-110l-122 -160zM182 112h110l-122 160l122 160h-110l-122 -160z" />
    <glyph glyph-name="logicalnot" unicode="&#xac;" horiz-adv-x="600" 
d="M450 89h122v366h-544v-122h422v-244z" />
    <glyph glyph-name="minus" unicode="&#xad;" horiz-adv-x="600" 
d="M572 211v122h-544v-122h544z" />
    <glyph glyph-name="minus" unicode="&#x2212;" horiz-adv-x="600" 
d="M572 211v122h-544v-122h544z" />
    <glyph glyph-name="registered" unicode="&#xae;" horiz-adv-x="800" 
d="M337 325h41l87 -167h97l-94 176c30.667 2 55.167 11.667 73.5 29s27.5 43.666 27.5 78.999c0 44.667 -13.833 76.334 -41.5 95.001s-69.5 28 -125.5 28h-153v-407h88v167zM337 493l62.002 0.000976562c29.333 0 49.666 -3 60.999 -9s17 -17 17 -33
c0 -20.667 -4.33301 -34.834 -13 -42.501s-25.334 -11.5 -50.001 -11.5h-77v96zM400.002 -9.99902c50 0 98.168 8.5 144.501 25.5s87.5 41.667 123.5 74s64.167 71.5 84.5 117.5s30.5 97.333 30.5 154s-10.333 108.167 -31 154.5s-48.834 85.5 -84.501 117.5
s-76.667 56.5 -123 73.5s-94.5 25.5 -144.5 25.5s-98.167 -8.5 -144.5 -25.5s-87.333 -41.667 -123 -74s-63.834 -71.5 -84.501 -117.5s-31 -97.333 -31 -154s10.333 -108.167 31 -154.5s48.834 -85.5 84.501 -117.5s76.667 -56.5 123 -73.5s94.5 -25.5 144.5 -25.5z
M669.003 361.001c0 -40.667 -7 -78.5 -21 -113.5s-33.333 -65.167 -58 -90.5s-53.334 -44.833 -86.001 -58.5s-67.334 -20.5 -104.001 -20.5c-37.333 0 -72.333 6.83301 -105 20.5s-61.334 33.167 -86.001 58.5s-43.834 55.333 -57.501 90s-20.5 72.667 -20.5 114
s6.83301 79.333 20.5 114s32.834 64.667 57.501 90s53.334 44.833 86.001 58.5s67.667 20.5 105 20.5c36.667 0 71.334 -6.83301 104.001 -20.5s61.334 -33.167 86.001 -58.5s44 -55.5 58 -90.5s21 -72.833 21 -113.5z" />
    <glyph glyph-name="macron" unicode="&#xaf;" horiz-adv-x="278" 
d="M313 640v74h-348v-74h348z" />
    <glyph glyph-name="degree" unicode="&#xb0;" horiz-adv-x="400" 
d="M200 502c-23.333 0 -42.833 8.33301 -58.5 25s-23.5 37.334 -23.5 62.001s7.83301 45.334 23.5 62.001s35.167 25 58.5 25s42.833 -8.33301 58.5 -25s23.5 -37.334 23.5 -62.001s-7.83301 -45.334 -23.5 -62.001s-35.167 -25 -58.5 -25zM200 446
c40.667 0 74.834 13.833 102.501 41.5s41.5 61.5 41.5 101.5s-13.833 73.833 -41.5 101.5s-61.834 41.5 -102.501 41.5s-74.834 -13.833 -102.501 -41.5s-41.5 -61.5 -41.5 -101.5s13.833 -73.833 41.5 -101.5s61.834 -41.5 102.501 -41.5z" />
    <glyph glyph-name="plusminus" unicode="&#xb1;" horiz-adv-x="600" 
d="M239 410h-211v-122h211v-134h122v134h211v122h-211v134h-122v-134zM28 0h544v122h-544v-122z" />
    <glyph glyph-name="twosuperior" unicode="&#xb2;" horiz-adv-x="333" 
d="M311 292v74h-179l44 39c45.333 38 80.333 72.167 105 102.5s37 63.166 37 98.499c0 40.667 -14 71.834 -42 93.501s-65.667 32.5 -113 32.5c-44 0 -79.333 -11.833 -106 -35.5s-40 -51.834 -40 -84.501v-21h90v16c0 14 5.33301 26 16 36s26.334 15 47.001 15
c19.333 0 33.833 -5 43.5 -15s14.5 -23 14.5 -39c0 -12 -2.66699 -23.5 -8 -34.5s-15.333 -24.667 -30 -41s-34.834 -36.166 -60.501 -59.499l-114.5 -102v-75h296z" />
    <glyph glyph-name="threesuperior" unicode="&#xb3;" horiz-adv-x="333" 
d="M10 420c0 -41.333 13.332 -73.9971 39.999 -97.9971s65.667 -36 117 -36c44 0 80.5 11.333 109.5 34s43.5 54.667 43.5 96c0 26 -5.33301 47.667 -16 65s-28 30.333 -52 39c18 8.66699 31.833 21.667 41.5 39s14.5 36 14.5 56c0 37.333 -13.333 66.166 -40 86.499
s-61.667 30.5 -105 30.5c-41.333 0 -75.333 -10.333 -102 -31s-40.334 -51.334 -41.001 -92.001h90c0.666992 14 5.83398 25.667 15.501 35s21.834 14 36.501 14c16.667 0 30.167 -4.5 40.5 -13.5s15.5 -19.833 15.5 -32.5c0 -20 -6.16699 -34 -18.5 -42
s-32.5 -12 -60.5 -12v-74c31.333 0 54.333 -4.83301 69 -14.5s22 -26.167 22 -49.5c0 -18 -5.66699 -32.5 -17 -43.5s-27.333 -16.5 -48 -16.5c-23.333 0 -40 4.66699 -50 14s-15 24.666 -15 45.999h-90z" />
    <glyph glyph-name="acute" unicode="&#xb4;" horiz-adv-x="278" 
d="M147 756l-93 -146h101l147 146h-155z" />
    <glyph glyph-name="mu" unicode="&#xb5;" 
d="M314 544v-410.999c-17.333 -15.333 -32.5 -27.333 -45.5 -36s-25.167 -13 -36.5 -13c-16 0 -27.667 5.16699 -35 15.5s-11 25.166 -11 44.499v400h-126v-736h126v182c22 2 43 9 63 21s43 29 69 51v-62h122v544h-126z" />
    <glyph glyph-name="paragraph" unicode="&#xb6;" horiz-adv-x="556" 
d="M190 -84h110v722h68v-722h110v722h68v84h-322c-74.667 0 -129 -14.667 -163 -44s-51 -74.333 -51 -135c0 -53.333 16 -95.5 48 -126.5s76 -46.5 132 -46.5v-454z" />
    <glyph glyph-name="periodcentered" unicode="&#xb7;" horiz-adv-x="278" 
d="M139 348c-22 0 -40.167 -7.66699 -54.5 -23s-21.5 -33 -21.5 -53s7.16699 -37.667 21.5 -53s32.5 -23 54.5 -23s40.167 7.66699 54.5 23s21.5 33 21.5 53s-7.16699 37.667 -21.5 53s-32.5 23 -54.5 23z" />
    <glyph glyph-name="periodcentered" unicode="&#x2219;" horiz-adv-x="278" 
d="M139 348c-22 0 -40.167 -7.66699 -54.5 -23s-21.5 -33 -21.5 -53s7.16699 -37.667 21.5 -53s32.5 -23 54.5 -23s40.167 7.66699 54.5 23s21.5 33 21.5 53s-7.16699 37.667 -21.5 53s-32.5 23 -54.5 23z" />
    <glyph glyph-name="cedilla" unicode="&#xb8;" horiz-adv-x="278" 
d="M2 -203c42 -16.667 78.332 -25 108.999 -25c33.333 0 62.833 7.83301 88.5 23.5s38.5 39.167 38.5 70.5c0 23.333 -9 42.166 -27 56.499s-39 21.5 -63 21.5c-13.333 0 -23.666 -2.33301 -30.999 -7l-2 2l42 61h-53l-59 -90l21 -20l3 1c18 4.66699 32 7 42 7
c11.333 0 21 -3.5 29 -10.5s12 -15.833 12 -26.5c0 -13.333 -5.66699 -23.166 -17 -29.499s-24.333 -9.5 -39 -9.5c-16 0 -40 5.33301 -72 16l-3 1z" />
    <glyph glyph-name="onesuperior" unicode="&#xb9;" horiz-adv-x="333" 
d="M143 292l90 -0.00195312v440h-62c-10.667 -15.333 -22.167 -27.166 -34.5 -35.499s-32.5 -15.166 -60.5 -20.499v-54h67v-330z" />
    <glyph glyph-name="ordmasculine" unicode="&#xba;" horiz-adv-x="300" 
d="M20 518c0 -42.667 11.167 -74 33.5 -94s54.5 -30 96.5 -30s74.167 10 96.5 30s33.5 51.333 33.5 94v91c0 42 -11.167 73 -33.5 93s-54.5 30 -96.5 30s-74.167 -10 -96.5 -30s-33.5 -51 -33.5 -93v-91zM110 620c0 25.333 13.333 38 40 38s40 -12.667 40 -38v-114
c0 -25.333 -13.333 -38 -40 -38s-40 12.667 -40 38v114z" />
    <glyph glyph-name="guillemotright" unicode="&#xbb;" horiz-adv-x="556" 
d="M292 272l-122 160h-110l122 -160l-122 -160h110zM496 272l-122 160h-110l122 -160l-122 -160h110z" />
    <glyph glyph-name="onequarter" unicode="&#xbc;" horiz-adv-x="834" 
d="M540 184l100 131h2v-131h-102zM444 184v-70h198v-114h90v114h66v70h-66v249h-89zM147 292l90 -0.00195312v440h-62c-10.667 -15.333 -22.167 -27.166 -34.5 -35.499s-32.5 -15.166 -60.5 -20.499v-54h67v-330zM153 -10.002h96l405 742h-96z" />
    <glyph glyph-name="onehalf" unicode="&#xbd;" horiz-adv-x="834" 
d="M147 292l90 -0.00195312v440h-62c-10.667 -15.333 -22.167 -27.166 -34.5 -35.499s-32.5 -15.166 -60.5 -20.499v-54h67v-330zM791 -0.00195312v74h-179l44 39c45.333 38 80.333 72.167 105 102.5s37 63.166 37 98.499c0 40.667 -14 71.834 -42 93.501
s-65.667 32.5 -113 32.5c-44 0 -79.333 -11.833 -106 -35.5s-40 -51.834 -40 -84.501v-21h90v16c0 14 5.33301 26 16 36s26.334 15 47.001 15c19.333 0 33.833 -5 43.5 -15s14.5 -23 14.5 -39c0 -12 -2.66699 -23.5 -8 -34.5s-15.333 -24.667 -30 -41
s-34.834 -36.166 -60.501 -59.499l-114.5 -102v-75h296zM135 -10.002h96l405 742h-96z" />
    <glyph glyph-name="threequarters" unicode="&#xbe;" horiz-adv-x="834" 
d="M540 184l100 131h2v-131h-102zM444 184v-70h198v-114h90v114h66v70h-66v249h-89zM36 420c0 -41.333 13.332 -73.9971 39.999 -97.9971s65.667 -36 117 -36c44 0 80.5 11.333 109.5 34s43.5 54.667 43.5 96c0 26 -5.33301 47.667 -16 65s-28 30.333 -52 39
c18 8.66699 31.833 21.667 41.5 39s14.5 36 14.5 56c0 37.333 -13.333 66.166 -40 86.499s-61.667 30.5 -105 30.5c-41.333 0 -75.333 -10.333 -102 -31s-40.334 -51.334 -41.001 -92.001h90c0.666992 14 5.83398 25.667 15.501 35s21.834 14 36.501 14
c16.667 0 30.167 -4.5 40.5 -13.5s15.5 -19.833 15.5 -32.5c0 -20 -6.16699 -34 -18.5 -42s-32.5 -12 -60.5 -12v-74c31.333 0 54.333 -4.83301 69 -14.5s22 -26.167 22 -49.5c0 -18 -5.66699 -32.5 -17 -43.5s-27.333 -16.5 -48 -16.5c-23.333 0 -40 4.66699 -50 14
s-15 24.666 -15 45.999h-90zM172.999 -9.99707h96l405 742h-96z" />
    <glyph glyph-name="questiondown" unicode="&#xbf;" horiz-adv-x="444" 
d="M319 2c-1.33301 -22 -10.665 -42.167 -27.998 -60.5s-36 -27.5 -56 -27.5c-16.667 0 -31.334 5.5 -44.001 16.5s-19 24.833 -19 41.5c0 13.333 5.66699 29.833 17 49.5s28.666 45.5 51.999 77.5c20 28.667 34.833 51.167 44.5 67.5s14.5 29.5 14.5 39.5v98h-110v-50
c0 -17.333 -5.66699 -35.5 -17 -54.5s-28.333 -43.167 -51 -72.5c-25.333 -32 -44.333 -58.833 -57 -80.5s-19 -43.167 -19 -64.5c0 -52.667 18.5 -94.167 55.5 -124.5s80.833 -45.5 131.5 -45.5s93.667 13.833 129 41.5s59.333 66.5 72 116.5zM174.001 544v-142h142v142
h-142z" />
    <glyph glyph-name="Agrave" unicode="&#xc0;" horiz-adv-x="556" 
d="M115 909l147 -146h101l-93 146h-155zM278 566h2l67 -292h-137zM146 0l39 152h191l35 -152h132l-174 722h-177l-179 -722h133z" />
    <glyph glyph-name="Aacute" unicode="&#xc1;" horiz-adv-x="556" 
d="M286 909l-93 -146h101l147 146h-155zM278 566h2l67 -292h-137zM146 0l39 152h191l35 -152h132l-174 722h-177l-179 -722h133z" />
    <glyph glyph-name="Acircumflex" unicode="&#xc2;" horiz-adv-x="556" 
d="M215 909l-114 -146h113l64 82l64 -82h113l-114 146h-126zM278 566h2l67 -292h-137zM146 0l39 152h191l35 -152h132l-174 722h-177l-179 -722h133z" />
    <glyph glyph-name="Atilde" unicode="&#xc3;" horiz-adv-x="556" 
d="M396 897c-2.66699 -12.667 -8.16895 -23.001 -16.502 -31.001s-18.5 -12 -30.5 -12c-9.33301 0 -27 5 -53 15c-18 7.33301 -33.667 12.833 -47 16.5s-26.333 5.5 -39 5.5c-33.333 0 -59.5 -11.5 -78.5 -34.5s-31.167 -52.167 -36.5 -87.5h63
c2.66699 12.667 7.83398 22.834 15.501 30.501s17.5 11.5 29.5 11.5c14 0 36.333 -5.33301 67 -16c34.667 -12.667 61.334 -19 80.001 -19c32.667 0 57.5 11 74.5 33s29.167 51.333 36.5 88h-65zM277.998 565.999h2l67 -292h-137zM145.998 -0.000976562l39 152h191l35 -152
h132l-174 722h-177l-179 -722h133z" />
    <glyph glyph-name="Adieresis" unicode="&#xc4;" horiz-adv-x="556" 
d="M123 885v-114h120v114h-120zM313 885v-114h120v114h-120zM278 566h2l67 -292h-137zM146 0l39 152h191l35 -152h132l-174 722h-177l-179 -722h133z" />
    <glyph glyph-name="Aring" unicode="&#xc5;" horiz-adv-x="556" 
d="M277 757c29.333 0 54.666 10.5 75.999 31.5s32 46.167 32 75.5s-10.667 54.5 -32 75.5s-46.666 31.5 -75.999 31.5s-54.333 -10.5 -75 -31.5s-31 -46.167 -31 -75.5s10.333 -54.5 31 -75.5s45.667 -31.5 75 -31.5zM277 917c14.667 0 27.334 -5.16699 38.001 -15.5
s16 -22.833 16 -37.5s-5.33301 -27.167 -16 -37.5s-23.334 -15.5 -38.001 -15.5s-27 5.16699 -37 15.5s-15 22.833 -15 37.5s5 27.167 15 37.5s22.333 15.5 37 15.5zM278 566h2l67 -292h-137zM146 0l39 152h191l35 -152h132l-174 722h-177l-179 -722h133z" />
    <glyph glyph-name="AE" unicode="&#xc6;" horiz-adv-x="1000" 
d="M466 612h18v-314h-174zM162 0l86 176h236v-176h444v122h-306v190h221v122h-221v166h294v122h-532l-370 -722h148z" />
    <glyph glyph-name="Ccedilla" unicode="&#xc7;" horiz-adv-x="556" 
d="M141 -203c42 -16.667 78.332 -25 108.999 -25c33.333 0 62.833 7.83301 88.5 23.5s38.5 39.167 38.5 70.5c0 23.333 -9 42.166 -27 56.499s-39 21.5 -63 21.5c-13.333 0 -23.666 -2.33301 -30.999 -7l-2 2l42 61h-53l-59 -90l21 -20l3 1c18 4.66699 32 7 42 7
c11.333 0 21 -3.5 29 -10.5s12 -15.833 12 -26.5c0 -13.333 -5.66699 -23.166 -17 -29.499s-24.333 -9.5 -39 -9.5c-16 0 -40 5.33301 -72 16l-3 1zM187.999 508c0 38 7.66699 64.5 23 79.5s37.666 22.5 66.999 22.5c30 0 52.5 -7.5 67.5 -22.5s22.5 -41.5 22.5 -79.5v-20
h138v2c0 43.333 -5.5 80.5 -16.5 111.5s-26.5 56.167 -46.5 75.5s-43.833 33.333 -71.5 42s-58.834 13 -93.501 13s-65.834 -4.33301 -93.501 -13s-51.5 -22.667 -71.5 -42s-35.5 -44.5 -46.5 -75.5s-16.5 -68.167 -16.5 -111.5v-258c0 -43.333 5.5 -80.5 16.5 -111.5
s26.5 -56.167 46.5 -75.5s43.833 -33.333 71.5 -42s58.834 -13 93.501 -13s65.834 4.33301 93.501 13s51.5 22.667 71.5 42s35.5 44.5 46.5 75.5s16.5 68.167 16.5 111.5v30h-138v-48c0 -38 -7.5 -64.5 -22.5 -79.5s-37.5 -22.5 -67.5 -22.5
c-29.333 0 -51.666 7.5 -66.999 22.5s-23 41.5 -23 79.5v294z" />
    <glyph glyph-name="Egrave" unicode="&#xc8;" 
d="M87 909l147 -146h101l-93 146h-155zM450 0v122h-250v190h183v122h-183v166h240v122h-378v-722h388z" />
    <glyph glyph-name="Eacute" unicode="&#xc9;" 
d="M258 909l-93 -146h101l147 146h-155zM450 0v122h-250v190h183v122h-183v166h240v122h-378v-722h388z" />
    <glyph glyph-name="Ecircumflex" unicode="&#xca;" 
d="M187 909l-114 -146h113l64 82l64 -82h113l-114 146h-126zM450 0v122h-250v190h183v122h-183v166h240v122h-378v-722h388z" />
    <glyph glyph-name="Edieresis" unicode="&#xcb;" 
d="M95 885v-114h120v114h-120zM285 885v-114h120v114h-120zM450 0v122h-250v190h183v122h-183v166h240v122h-378v-722h388z" />
    <glyph glyph-name="Igrave" unicode="&#xcc;" horiz-adv-x="278" 
d="M-24 909l147 -146h101l-93 146h-155zM208 0v722h-138v-722h138z" />
    <glyph glyph-name="Iacute" unicode="&#xcd;" horiz-adv-x="278" 
d="M147 909l-93 -146h101l147 146h-155zM208 0v722h-138v-722h138z" />
    <glyph glyph-name="Icircumflex" unicode="&#xce;" horiz-adv-x="278" 
d="M76 909l-114 -146h113l64 82l64 -82h113l-114 146h-126zM208 0v722h-138v-722h138z" />
    <glyph glyph-name="Idieresis" unicode="&#xcf;" horiz-adv-x="278" 
d="M-16 885v-114h120v114h-120zM174 885v-114h120v114h-120zM208 0v722h-138v-722h138z" />
    <glyph glyph-name="Eth" unicode="&#xd0;" horiz-adv-x="556" 
d="M8 312h54v-312h192c81.333 0 143 19.5 185 58.5s64.333 102.833 67 191.5v222c-2.66699 88.667 -25 152.5 -67 191.5s-103.667 58.5 -185 58.5h-192v-288h-54v-122zM288 434l-88.001 -0.000976562v166h48c42.667 0 73.334 -11.167 92.001 -33.5s28 -59.166 28 -110.499
v-190c0 -52 -10 -89 -30 -111s-50 -33 -90 -33h-48v190h88v122z" />
    <glyph glyph-name="Ntilde" unicode="&#xd1;" horiz-adv-x="611" 
d="M424 897c-2.66699 -12.667 -8.16895 -23.001 -16.502 -31.001s-18.5 -12 -30.5 -12c-9.33301 0 -27 5 -53 15c-18 7.33301 -33.667 12.833 -47 16.5s-26.333 5.5 -39 5.5c-33.333 0 -59.5 -11.5 -78.5 -34.5s-31.167 -52.167 -36.5 -87.5h63
c2.66699 12.667 7.83398 22.834 15.501 30.501s17.5 11.5 29.5 11.5c14 0 36.333 -5.33301 67 -16c34.667 -12.667 61.334 -19 80.001 -19c32.667 0 57.5 11 74.5 33s29.167 51.333 36.5 88h-65zM195.998 -0.000976562v466h2l211 -466h132v722h-126v-428h-2l-192 428h-151
v-722h126z" />
    <glyph glyph-name="Ograve" unicode="&#xd2;" horiz-adv-x="556" 
d="M115 909l147 -146h101l-93 146h-155zM50 232c0 -43.333 5.5 -80.5 16.5 -111.5s26.5 -56.167 46.5 -75.5s43.833 -33.333 71.5 -42s58.834 -13 93.501 -13s65.834 4.33301 93.501 13s51.5 22.667 71.5 42s35.5 44.5 46.5 75.5s16.5 68.167 16.5 111.5v258
c0 43.333 -5.5 80.5 -16.5 111.5s-26.5 56.167 -46.5 75.5s-43.833 33.333 -71.5 42s-58.834 13 -93.501 13s-65.834 -4.33301 -93.501 -13s-51.5 -22.667 -71.5 -42s-35.5 -44.5 -46.5 -75.5s-16.5 -68.167 -16.5 -111.5v-258zM188 508c0 38 7.66699 64.5 23 79.5
s37.666 22.5 66.999 22.5c30 0 52.5 -7.5 67.5 -22.5s22.5 -41.5 22.5 -79.5v-294c0 -38 -7.5 -64.5 -22.5 -79.5s-37.5 -22.5 -67.5 -22.5c-29.333 0 -51.666 7.5 -66.999 22.5s-23 41.5 -23 79.5v294z" />
    <glyph glyph-name="Oacute" unicode="&#xd3;" horiz-adv-x="556" 
d="M286 909l-93 -146h101l147 146h-155zM50 232c0 -43.333 5.5 -80.5 16.5 -111.5s26.5 -56.167 46.5 -75.5s43.833 -33.333 71.5 -42s58.834 -13 93.501 -13s65.834 4.33301 93.501 13s51.5 22.667 71.5 42s35.5 44.5 46.5 75.5s16.5 68.167 16.5 111.5v258
c0 43.333 -5.5 80.5 -16.5 111.5s-26.5 56.167 -46.5 75.5s-43.833 33.333 -71.5 42s-58.834 13 -93.501 13s-65.834 -4.33301 -93.501 -13s-51.5 -22.667 -71.5 -42s-35.5 -44.5 -46.5 -75.5s-16.5 -68.167 -16.5 -111.5v-258zM188 508c0 38 7.66699 64.5 23 79.5
s37.666 22.5 66.999 22.5c30 0 52.5 -7.5 67.5 -22.5s22.5 -41.5 22.5 -79.5v-294c0 -38 -7.5 -64.5 -22.5 -79.5s-37.5 -22.5 -67.5 -22.5c-29.333 0 -51.666 7.5 -66.999 22.5s-23 41.5 -23 79.5v294z" />
    <glyph glyph-name="Ocircumflex" unicode="&#xd4;" horiz-adv-x="556" 
d="M215 909l-114 -146h113l64 82l64 -82h113l-114 146h-126zM50 232c0 -43.333 5.5 -80.5 16.5 -111.5s26.5 -56.167 46.5 -75.5s43.833 -33.333 71.5 -42s58.834 -13 93.501 -13s65.834 4.33301 93.501 13s51.5 22.667 71.5 42s35.5 44.5 46.5 75.5s16.5 68.167 16.5 111.5
v258c0 43.333 -5.5 80.5 -16.5 111.5s-26.5 56.167 -46.5 75.5s-43.833 33.333 -71.5 42s-58.834 13 -93.501 13s-65.834 -4.33301 -93.501 -13s-51.5 -22.667 -71.5 -42s-35.5 -44.5 -46.5 -75.5s-16.5 -68.167 -16.5 -111.5v-258zM188 508c0 38 7.66699 64.5 23 79.5
s37.666 22.5 66.999 22.5c30 0 52.5 -7.5 67.5 -22.5s22.5 -41.5 22.5 -79.5v-294c0 -38 -7.5 -64.5 -22.5 -79.5s-37.5 -22.5 -67.5 -22.5c-29.333 0 -51.666 7.5 -66.999 22.5s-23 41.5 -23 79.5v294z" />
    <glyph glyph-name="Otilde" unicode="&#xd5;" horiz-adv-x="556" 
d="M396 897c-2.66699 -12.667 -8.16895 -23.001 -16.502 -31.001s-18.5 -12 -30.5 -12c-9.33301 0 -27 5 -53 15c-18 7.33301 -33.667 12.833 -47 16.5s-26.333 5.5 -39 5.5c-33.333 0 -59.5 -11.5 -78.5 -34.5s-31.167 -52.167 -36.5 -87.5h63
c2.66699 12.667 7.83398 22.834 15.501 30.501s17.5 11.5 29.5 11.5c14 0 36.333 -5.33301 67 -16c34.667 -12.667 61.334 -19 80.001 -19c32.667 0 57.5 11 74.5 33s29.167 51.333 36.5 88h-65zM49.998 231.999c0 -43.333 5.5 -80.5 16.5 -111.5s26.5 -56.167 46.5 -75.5
s43.833 -33.333 71.5 -42s58.834 -13 93.501 -13s65.834 4.33301 93.501 13s51.5 22.667 71.5 42s35.5 44.5 46.5 75.5s16.5 68.167 16.5 111.5v258c0 43.333 -5.5 80.5 -16.5 111.5s-26.5 56.167 -46.5 75.5s-43.833 33.333 -71.5 42s-58.834 13 -93.501 13
s-65.834 -4.33301 -93.501 -13s-51.5 -22.667 -71.5 -42s-35.5 -44.5 -46.5 -75.5s-16.5 -68.167 -16.5 -111.5v-258zM187.998 507.999c0 38 7.66699 64.5 23 79.5s37.666 22.5 66.999 22.5c30 0 52.5 -7.5 67.5 -22.5s22.5 -41.5 22.5 -79.5v-294
c0 -38 -7.5 -64.5 -22.5 -79.5s-37.5 -22.5 -67.5 -22.5c-29.333 0 -51.666 7.5 -66.999 22.5s-23 41.5 -23 79.5v294z" />
    <glyph glyph-name="Odieresis" unicode="&#xd6;" horiz-adv-x="556" 
d="M123 885v-114h120v114h-120zM313 885v-114h120v114h-120zM50 232c0 -43.333 5.5 -80.5 16.5 -111.5s26.5 -56.167 46.5 -75.5s43.833 -33.333 71.5 -42s58.834 -13 93.501 -13s65.834 4.33301 93.501 13s51.5 22.667 71.5 42s35.5 44.5 46.5 75.5s16.5 68.167 16.5 111.5
v258c0 43.333 -5.5 80.5 -16.5 111.5s-26.5 56.167 -46.5 75.5s-43.833 33.333 -71.5 42s-58.834 13 -93.501 13s-65.834 -4.33301 -93.501 -13s-51.5 -22.667 -71.5 -42s-35.5 -44.5 -46.5 -75.5s-16.5 -68.167 -16.5 -111.5v-258zM188 508c0 38 7.66699 64.5 23 79.5
s37.666 22.5 66.999 22.5c30 0 52.5 -7.5 67.5 -22.5s22.5 -41.5 22.5 -79.5v-294c0 -38 -7.5 -64.5 -22.5 -79.5s-37.5 -22.5 -67.5 -22.5c-29.333 0 -51.666 7.5 -66.999 22.5s-23 41.5 -23 79.5v294z" />
    <glyph glyph-name="multiply" unicode="&#xd7;" horiz-adv-x="600" 
d="M214 273v-1l-186 -186l87 -86l185 186l186 -186l86 86l-186 186l186 187l-86 85l-186 -185l-185 185l-87 -85z" />
    <glyph glyph-name="Oslash" unicode="&#xd8;" horiz-adv-x="556" 
d="M190 262h-1.99902v246c0 38 7.66699 64.5 23 79.5s37.666 22.5 66.999 22.5c36 0 60.667 -10.667 74 -32zM366.001 433h2v-219c0 -38 -7.5 -64.5 -22.5 -79.5s-37.5 -22.5 -67.5 -22.5c-31.333 0 -53.333 7.33301 -66 22zM446.001 770l-36 -68.001
c-35.333 20 -79.333 30 -132 30c-34.667 0 -65.834 -4.33301 -93.501 -13s-51.5 -22.667 -71.5 -42s-35.5 -44.5 -46.5 -75.5s-16.5 -68.167 -16.5 -111.5v-258c0 -64.667 12.333 -116 37 -154l-81 -156h104l48 93c31.333 -16.667 71.333 -25 120 -25
c34.667 0 65.834 4.33301 93.501 13s51.5 22.667 71.5 42s35.5 44.5 46.5 75.5s16.5 68.167 16.5 111.5v258c0 56.667 -9.66699 103.334 -29 140.001l73 140h-104z" />
    <glyph glyph-name="Ugrave" unicode="&#xd9;" horiz-adv-x="611" 
d="M143 909l147 -146h101l-93 146h-155zM70 722v-506c0 -76.667 20.667 -133.5 62 -170.5s99 -55.5 173 -55.5s131.833 18.5 173.5 55.5s62.5 93.833 62.5 170.5v506h-138v-505c0 -70 -32.667 -105 -98 -105c-64.667 0 -97 35 -97 105v505h-138z" />
    <glyph glyph-name="Uacute" unicode="&#xda;" horiz-adv-x="611" 
d="M314 909l-93 -146h101l147 146h-155zM70 722v-506c0 -76.667 20.667 -133.5 62 -170.5s99 -55.5 173 -55.5s131.833 18.5 173.5 55.5s62.5 93.833 62.5 170.5v506h-138v-505c0 -70 -32.667 -105 -98 -105c-64.667 0 -97 35 -97 105v505h-138z" />
    <glyph glyph-name="Ucircumflex" unicode="&#xdb;" horiz-adv-x="611" 
d="M243 909l-114 -146h113l64 82l64 -82h113l-114 146h-126zM70 722v-506c0 -76.667 20.667 -133.5 62 -170.5s99 -55.5 173 -55.5s131.833 18.5 173.5 55.5s62.5 93.833 62.5 170.5v506h-138v-505c0 -70 -32.667 -105 -98 -105c-64.667 0 -97 35 -97 105v505h-138z" />
    <glyph glyph-name="Udieresis" unicode="&#xdc;" horiz-adv-x="611" 
d="M151 885v-114h120v114h-120zM341 885v-114h120v114h-120zM70 722v-506c0 -76.667 20.667 -133.5 62 -170.5s99 -55.5 173 -55.5s131.833 18.5 173.5 55.5s62.5 93.833 62.5 170.5v506h-138v-505c0 -70 -32.667 -105 -98 -105c-64.667 0 -97 35 -97 105v505h-138z" />
    <glyph glyph-name="Yacute" unicode="&#xdd;" horiz-adv-x="556" 
d="M286 909l-93 -146h101l147 146h-155zM159 722h-147l197 -430v-292h138v292l197 430h-147l-117 -291z" />
    <glyph glyph-name="Thorn" unicode="&#xde;" horiz-adv-x="556" 
d="M208 0v158.002h61c84 0 147.167 18.667 189.5 56s63.5 90.666 63.5 159.999s-21.167 122.666 -63.5 159.999s-105.5 56 -189.5 56h-61v132h-138v-722h138zM208 476.002h74c68 0 102 -34 102 -102s-34 -102 -102 -102h-74v204z" />
    <glyph glyph-name="germandbls" unicode="&#xdf;" 
d="M186 0v552.999c0 16.667 4.66699 30.667 14 42s23.333 17 42 17c23.333 0 40.166 -7.83301 50.499 -23.5s15.5 -37.167 15.5 -64.5c0 -26.667 -6.16699 -47.667 -18.5 -63s-29.833 -23.666 -52.5 -24.999v-102c36.667 0 61.5 -10.333 74.5 -31s19.5 -52 19.5 -94
c0 -34.667 -4.33301 -59.834 -13 -75.501s-22.667 -23.5 -42 -23.5c-14.667 0 -28 3 -40 9v-114c23.333 -10 47.666 -15 72.999 -15c44 0 79.667 17.5 107 52.5s41 84.833 41 149.5c0 52.667 -6.83301 94.667 -20.5 126s-38.167 56.333 -73.5 75
c20.667 11.333 36.667 29 48 53s17 49 17 75c0 64.667 -15.5 114.334 -46.5 149.001s-75.167 52 -132.5 52c-36 0 -66.167 -4.66699 -90.5 -14s-43.666 -22.833 -57.999 -40.5s-24.666 -38.5 -30.999 -62.5s-9.5 -51.333 -9.5 -82v-523h126z" />
    <glyph glyph-name="agrave" unicode="&#xe0;" 
d="M87 756l147 -146h101l-93 146h-155zM174 385c0 19.333 6.83398 35.332 20.501 47.999s30.167 19 49.5 19s35 -5.33301 47 -16s18 -27 18 -49v-40c-43.333 -12.667 -81.333 -25.667 -114 -39s-61.167 -28.666 -85.5 -45.999s-43.333 -37.666 -57 -60.999
s-20.5 -50.333 -20.5 -81c0 -42.667 11 -75 33 -97s52.667 -33 92 -33c30 0 57.5 5.5 82.5 16.5s47.5 26.5 67.5 46.5c1.33301 -5.33301 3 -14.333 5 -27c1.33301 -10.667 2.66602 -19.334 3.99902 -26.001h126c-4.66699 16.667 -7 31.334 -7 44.001v345
c0 51.333 -14.833 91.666 -44.5 120.999s-76.5 44 -140.5 44c-54.667 0 -101 -13.833 -139 -41.5s-59 -70.167 -63 -127.5h126zM309.001 133.999c-16.667 -16.667 -32.167 -29.167 -46.5 -37.5s-30.5 -12.5 -48.5 -12.5c-17.333 0 -31 5 -41 15s-15 24 -15 42
c0 26 14.333 49.5 43 70.5s64.667 39.167 108 54.5v-132z" />
    <glyph glyph-name="aacute" unicode="&#xe1;" 
d="M258 756l-93 -146h101l147 146h-155zM174 385c0 19.333 6.83398 35.332 20.501 47.999s30.167 19 49.5 19s35 -5.33301 47 -16s18 -27 18 -49v-40c-43.333 -12.667 -81.333 -25.667 -114 -39s-61.167 -28.666 -85.5 -45.999s-43.333 -37.666 -57 -60.999
s-20.5 -50.333 -20.5 -81c0 -42.667 11 -75 33 -97s52.667 -33 92 -33c30 0 57.5 5.5 82.5 16.5s47.5 26.5 67.5 46.5c1.33301 -5.33301 3 -14.333 5 -27c1.33301 -10.667 2.66602 -19.334 3.99902 -26.001h126c-4.66699 16.667 -7 31.334 -7 44.001v345
c0 51.333 -14.833 91.666 -44.5 120.999s-76.5 44 -140.5 44c-54.667 0 -101 -13.833 -139 -41.5s-59 -70.167 -63 -127.5h126zM309.001 133.999c-16.667 -16.667 -32.167 -29.167 -46.5 -37.5s-30.5 -12.5 -48.5 -12.5c-17.333 0 -31 5 -41 15s-15 24 -15 42
c0 26 14.333 49.5 43 70.5s64.667 39.167 108 54.5v-132z" />
    <glyph glyph-name="acircumflex" unicode="&#xe2;" 
d="M187 756l-114 -146h113l64 82l64 -82h113l-114 146h-126zM174 385c0 19.333 6.83398 35.332 20.501 47.999s30.167 19 49.5 19s35 -5.33301 47 -16s18 -27 18 -49v-40c-43.333 -12.667 -81.333 -25.667 -114 -39s-61.167 -28.666 -85.5 -45.999
s-43.333 -37.666 -57 -60.999s-20.5 -50.333 -20.5 -81c0 -42.667 11 -75 33 -97s52.667 -33 92 -33c30 0 57.5 5.5 82.5 16.5s47.5 26.5 67.5 46.5c1.33301 -5.33301 3 -14.333 5 -27c1.33301 -10.667 2.66602 -19.334 3.99902 -26.001h126
c-4.66699 16.667 -7 31.334 -7 44.001v345c0 51.333 -14.833 91.666 -44.5 120.999s-76.5 44 -140.5 44c-54.667 0 -101 -13.833 -139 -41.5s-59 -70.167 -63 -127.5h126zM309.001 133.999c-16.667 -16.667 -32.167 -29.167 -46.5 -37.5s-30.5 -12.5 -48.5 -12.5
c-17.333 0 -31 5 -41 15s-15 24 -15 42c0 26 14.333 49.5 43 70.5s64.667 39.167 108 54.5v-132z" />
    <glyph glyph-name="atilde" unicode="&#xe3;" 
d="M368 744c-2.66699 -12.667 -8.16895 -23.001 -16.502 -31.001s-18.5 -12 -30.5 -12c-9.33301 0 -27 5 -53 15c-18 7.33301 -33.667 12.833 -47 16.5s-26.333 5.5 -39 5.5c-33.333 0 -59.5 -11.5 -78.5 -34.5s-31.167 -52.167 -36.5 -87.5h63
c2.66699 12.667 7.83398 22.834 15.501 30.501s17.5 11.5 29.5 11.5c14 0 36.333 -5.33301 67 -16c34.667 -12.667 61.334 -19 80.001 -19c32.667 0 57.5 11 74.5 33s29.167 51.333 36.5 88h-65zM173.998 384.999c0 19.333 6.83398 35.332 20.501 47.999s30.167 19 49.5 19
s35 -5.33301 47 -16s18 -27 18 -49v-40c-43.333 -12.667 -81.333 -25.667 -114 -39s-61.167 -28.666 -85.5 -45.999s-43.333 -37.666 -57 -60.999s-20.5 -50.333 -20.5 -81c0 -42.667 11 -75 33 -97s52.667 -33 92 -33c30 0 57.5 5.5 82.5 16.5s47.5 26.5 67.5 46.5
c1.33301 -5.33301 3 -14.333 5 -27c1.33301 -10.667 2.66602 -19.334 3.99902 -26.001h126c-4.66699 16.667 -7 31.334 -7 44.001v345c0 51.333 -14.833 91.666 -44.5 120.999s-76.5 44 -140.5 44c-54.667 0 -101 -13.833 -139 -41.5s-59 -70.167 -63 -127.5h126z
M308.999 133.998c-16.667 -16.667 -32.167 -29.167 -46.5 -37.5s-30.5 -12.5 -48.5 -12.5c-17.333 0 -31 5 -41 15s-15 24 -15 42c0 26 14.333 49.5 43 70.5s64.667 39.167 108 54.5v-132z" />
    <glyph glyph-name="adieresis" unicode="&#xe4;" 
d="M95 732v-114h120v114h-120zM285 732v-114h120v114h-120zM174 385c0 19.333 6.83398 35.332 20.501 47.999s30.167 19 49.5 19s35 -5.33301 47 -16s18 -27 18 -49v-40c-43.333 -12.667 -81.333 -25.667 -114 -39s-61.167 -28.666 -85.5 -45.999
s-43.333 -37.666 -57 -60.999s-20.5 -50.333 -20.5 -81c0 -42.667 11 -75 33 -97s52.667 -33 92 -33c30 0 57.5 5.5 82.5 16.5s47.5 26.5 67.5 46.5c1.33301 -5.33301 3 -14.333 5 -27c1.33301 -10.667 2.66602 -19.334 3.99902 -26.001h126
c-4.66699 16.667 -7 31.334 -7 44.001v345c0 51.333 -14.833 91.666 -44.5 120.999s-76.5 44 -140.5 44c-54.667 0 -101 -13.833 -139 -41.5s-59 -70.167 -63 -127.5h126zM309.001 133.999c-16.667 -16.667 -32.167 -29.167 -46.5 -37.5s-30.5 -12.5 -48.5 -12.5
c-17.333 0 -31 5 -41 15s-15 24 -15 42c0 26 14.333 49.5 43 70.5s64.667 39.167 108 54.5v-132z" />
    <glyph glyph-name="aring" unicode="&#xe5;" 
d="M249 604c29.333 0 54.666 10.5 75.999 31.5s32 46.167 32 75.5s-10.667 54.5 -32 75.5s-46.666 31.5 -75.999 31.5s-54.333 -10.5 -75 -31.5s-31 -46.167 -31 -75.5s10.333 -54.5 31 -75.5s45.667 -31.5 75 -31.5zM249 764c14.667 0 27.334 -5.16699 38.001 -15.5
s16 -22.833 16 -37.5s-5.33301 -27.167 -16 -37.5s-23.334 -15.5 -38.001 -15.5s-27 5.16699 -37 15.5s-15 22.833 -15 37.5s5 27.167 15 37.5s22.333 15.5 37 15.5zM174 385c0 19.333 6.83398 35.332 20.501 47.999s30.167 19 49.5 19s35 -5.33301 47 -16s18 -27 18 -49
v-40c-43.333 -12.667 -81.333 -25.667 -114 -39s-61.167 -28.666 -85.5 -45.999s-43.333 -37.666 -57 -60.999s-20.5 -50.333 -20.5 -81c0 -42.667 11 -75 33 -97s52.667 -33 92 -33c30 0 57.5 5.5 82.5 16.5s47.5 26.5 67.5 46.5c1.33301 -5.33301 3 -14.333 5 -27
c1.33301 -10.667 2.66602 -19.334 3.99902 -26.001h126c-4.66699 16.667 -7 31.334 -7 44.001v345c0 51.333 -14.833 91.666 -44.5 120.999s-76.5 44 -140.5 44c-54.667 0 -101 -13.833 -139 -41.5s-59 -70.167 -63 -127.5h126zM309.001 133.999
c-16.667 -16.667 -32.167 -29.167 -46.5 -37.5s-30.5 -12.5 -48.5 -12.5c-17.333 0 -31 5 -41 15s-15 24 -15 42c0 26 14.333 49.5 43 70.5s64.667 39.167 108 54.5v-132z" />
    <glyph glyph-name="ae" unicode="&#xe6;" horiz-adv-x="778" 
d="M316 134c-12 -16 -25.168 -28.333 -39.501 -37s-30.5 -13 -48.5 -13c-17.333 0 -31 5 -41 15s-15 24 -15 42c0 26 13.833 49.5 41.5 70.5s61.834 39.167 102.501 54.5v-132zM715.999 242l-0.000976562 126.999c0 54.667 -18 99.167 -54 133.5s-81.333 51.5 -136 51.5
c-26.667 0 -51.5 -5.66699 -74.5 -17s-42.833 -26.333 -59.5 -45c-15.333 19.333 -35.5 34.5 -60.5 45.5s-52.833 16.5 -83.5 16.5c-22 0 -43.5 -3.16699 -64.5 -9.5s-40.333 -16.333 -58 -30s-32.167 -31.334 -43.5 -53.001s-18 -47.167 -20 -76.5h126
c0 19.333 6.83301 35.333 20.5 48s30.167 19 49.5 19c18.667 0 33 -5.16699 43 -15.5s15 -26.833 15 -49.5v-40c-41.333 -12.667 -77.833 -25.667 -109.5 -39s-59.5 -28.666 -83.5 -45.999s-42.833 -37.666 -56.5 -60.999s-20.5 -50.333 -20.5 -81c0 -42.667 11 -75 33 -97
s52.667 -33 92 -33c29.333 0 57.166 4.33301 83.499 13s58.5 27.667 96.5 57c14.667 -17.333 35.834 -33.333 63.501 -48s61.5 -22 101.5 -22c62.667 0 110.834 15.5 144.501 46.5s52.167 74.833 55.5 131.5h-126c0 -22.667 -6 -41 -18 -55s-30.667 -21 -56 -21
c-22 0 -39.833 6.5 -53.5 19.5s-20.5 32.5 -20.5 58.5v72h274zM441.998 343.999v30c0 24.667 6.16699 43.834 18.5 57.501s30.833 20.5 55.5 20.5s43.167 -6.83301 55.5 -20.5s18.5 -32.834 18.5 -57.501v-30h-148z" />
    <glyph glyph-name="ccedilla" unicode="&#xe7;" 
d="M113 -203c42 -16.667 78.332 -25 108.999 -25c33.333 0 62.833 7.83301 88.5 23.5s38.5 39.167 38.5 70.5c0 23.333 -9 42.166 -27 56.499s-39 21.5 -63 21.5c-13.333 0 -23.666 -2.33301 -30.999 -7l-2 2l42 61h-53l-59 -90l21 -20l3 1c18 4.66699 32 7 42 7
c11.333 0 21 -3.5 29 -10.5s12 -15.833 12 -26.5c0 -13.333 -5.66699 -23.166 -17 -29.499s-24.333 -9.5 -39 -9.5c-16 0 -40 5.33301 -72 16l-3 1zM448.999 356c-0.666992 67.333 -18.168 117.167 -52.501 149.5s-83.166 48.5 -146.499 48.5
c-64.667 0 -114.167 -16.833 -148.5 -50.5s-51.5 -85.5 -51.5 -155.5v-152c0 -70 17.167 -121.833 51.5 -155.5s83.833 -50.5 148.5 -50.5s114.167 16.833 148.5 50.5s51.5 85.5 51.5 155.5v2h-126v-34c0 -20.667 -6.66699 -36.5 -20 -47.5s-31.333 -16.5 -54 -16.5
s-40.667 5.5 -54 16.5s-20 26.833 -20 47.5v216c0 20.667 6.66699 36.5 20 47.5s31.333 16.5 54 16.5s40.667 -5.5 54 -16.5s20 -26.833 20 -47.5v-24h125z" />
    <glyph glyph-name="egrave" unicode="&#xe8;" 
d="M87 756l147 -146h101l-93 146h-155zM450 242l-0.000976562 127c0 55.333 -18.667 100 -56 134s-85.333 51 -144 51c-60.667 0 -109.167 -17.333 -145.5 -52s-54.5 -81.667 -54.5 -141v-178c0 -59.333 18.167 -106.333 54.5 -141s84.833 -52 145.5 -52
c62.667 0 110.834 15.5 144.501 46.5s52.167 74.833 55.5 131.5h-126c0 -22.667 -6 -41 -18 -55s-30.667 -21 -56 -21c-22 0 -39.833 6.5 -53.5 19.5s-20.5 32.5 -20.5 58.5v72h274zM175.999 344v30c0 24.667 6.16699 43.834 18.5 57.501s30.833 20.5 55.5 20.5
s43.167 -6.83301 55.5 -20.5s18.5 -32.834 18.5 -57.501v-30h-148z" />
    <glyph glyph-name="eacute" unicode="&#xe9;" 
d="M258 756l-93 -146h101l147 146h-155zM450 242l-0.000976562 127c0 55.333 -18.667 100 -56 134s-85.333 51 -144 51c-60.667 0 -109.167 -17.333 -145.5 -52s-54.5 -81.667 -54.5 -141v-178c0 -59.333 18.167 -106.333 54.5 -141s84.833 -52 145.5 -52
c62.667 0 110.834 15.5 144.501 46.5s52.167 74.833 55.5 131.5h-126c0 -22.667 -6 -41 -18 -55s-30.667 -21 -56 -21c-22 0 -39.833 6.5 -53.5 19.5s-20.5 32.5 -20.5 58.5v72h274zM175.999 344v30c0 24.667 6.16699 43.834 18.5 57.501s30.833 20.5 55.5 20.5
s43.167 -6.83301 55.5 -20.5s18.5 -32.834 18.5 -57.501v-30h-148z" />
    <glyph glyph-name="ecircumflex" unicode="&#xea;" 
d="M187 756l-114 -146h113l64 82l64 -82h113l-114 146h-126zM450 242l-0.000976562 127c0 55.333 -18.667 100 -56 134s-85.333 51 -144 51c-60.667 0 -109.167 -17.333 -145.5 -52s-54.5 -81.667 -54.5 -141v-178c0 -59.333 18.167 -106.333 54.5 -141
s84.833 -52 145.5 -52c62.667 0 110.834 15.5 144.501 46.5s52.167 74.833 55.5 131.5h-126c0 -22.667 -6 -41 -18 -55s-30.667 -21 -56 -21c-22 0 -39.833 6.5 -53.5 19.5s-20.5 32.5 -20.5 58.5v72h274zM175.999 344v30c0 24.667 6.16699 43.834 18.5 57.501
s30.833 20.5 55.5 20.5s43.167 -6.83301 55.5 -20.5s18.5 -32.834 18.5 -57.501v-30h-148z" />
    <glyph glyph-name="edieresis" unicode="&#xeb;" 
d="M95 732v-114h120v114h-120zM285 732v-114h120v114h-120zM450 242l-0.000976562 127c0 55.333 -18.667 100 -56 134s-85.333 51 -144 51c-60.667 0 -109.167 -17.333 -145.5 -52s-54.5 -81.667 -54.5 -141v-178c0 -59.333 18.167 -106.333 54.5 -141s84.833 -52 145.5 -52
c62.667 0 110.834 15.5 144.501 46.5s52.167 74.833 55.5 131.5h-126c0 -22.667 -6 -41 -18 -55s-30.667 -21 -56 -21c-22 0 -39.833 6.5 -53.5 19.5s-20.5 32.5 -20.5 58.5v72h274zM175.999 344v30c0 24.667 6.16699 43.834 18.5 57.501s30.833 20.5 55.5 20.5
s43.167 -6.83301 55.5 -20.5s18.5 -32.834 18.5 -57.501v-30h-148z" />
    <glyph glyph-name="igrave" unicode="&#xec;" horiz-adv-x="278" 
d="M-24 756l147 -146h101l-93 146h-155zM202 0v544h-126v-544h126z" />
    <glyph glyph-name="iacute" unicode="&#xed;" horiz-adv-x="278" 
d="M147 756l-93 -146h101l147 146h-155zM202 0v544h-126v-544h126z" />
    <glyph glyph-name="icircumflex" unicode="&#xee;" horiz-adv-x="278" 
d="M76 756l-114 -146h113l64 82l64 -82h113l-114 146h-126zM202 0v544h-126v-544h126z" />
    <glyph glyph-name="idieresis" unicode="&#xef;" horiz-adv-x="278" 
d="M-16 732v-114h120v114h-120zM174 732v-114h120v114h-120zM202 0v544h-126v-544h126z" />
    <glyph glyph-name="eth" unicode="&#xf0;" 
d="M176 350c0 19.333 6.66699 34.166 20 44.499s31.333 15.5 54 15.5s40.667 -5.16699 54 -15.5s20 -25.166 20 -44.499v-190c0 -19.333 -6.66699 -34.166 -20 -44.499s-31.333 -15.5 -54 -15.5s-40.667 5.16699 -54 15.5s-20 25.166 -20 44.499v190zM176 708
l14.999 -18.002l32 -41l-95 -33l30 -74l110 38c12.667 -23.333 21 -44.666 25 -63.999c-8 2 -15 3.16699 -21 3.5s-13.333 0.5 -22 0.5c-64.667 0 -114.167 -15.833 -148.5 -47.5s-51.5 -80.5 -51.5 -146.5v-143c0 -66 17.167 -114.667 51.5 -146s83.833 -47 148.5 -47
s114.167 15.667 148.5 47s51.5 80 51.5 146v143c0 106 -25.667 202.667 -77 290l91 32l-30 74l-108 -37c-1.33301 1.33301 -2.66602 3 -3.99902 5c-12 14.667 -21.333 25.334 -28 32.001z" />
    <glyph glyph-name="ntilde" unicode="&#xf1;" 
d="M368 744c-2.66699 -12.667 -8.16895 -23.001 -16.502 -31.001s-18.5 -12 -30.5 -12c-9.33301 0 -27 5 -53 15c-18 7.33301 -33.667 12.833 -47 16.5s-26.333 5.5 -39 5.5c-33.333 0 -59.5 -11.5 -78.5 -34.5s-31.167 -52.167 -36.5 -87.5h63
c2.66699 12.667 7.83398 22.834 15.501 30.501s17.5 11.5 29.5 11.5c14 0 36.333 -5.33301 67 -16c34.667 -12.667 61.334 -19 80.001 -19c32.667 0 57.5 11 74.5 33s29.167 51.333 36.5 88h-65zM185.998 -0.000976562l-0.00195312 410.999c17.333 16 32.5 28.167 45.5 36.5
s25.167 12.5 36.5 12.5c16.667 0 28.5 -5.16699 35.5 -15.5s10.5 -25.166 10.5 -44.499v-400h126v414c0 49.333 -9.66699 85 -29 107s-48.666 33 -87.999 33c-24 0 -46.667 -6 -68 -18s-45.666 -30 -72.999 -54v62h-122v-544h126z" />
    <glyph glyph-name="ograve" unicode="&#xf2;" 
d="M87 756l147 -146h101l-93 146h-155zM50 196c0 -70 17.167 -121.833 51.5 -155.5s83.833 -50.5 148.5 -50.5s114.167 16.833 148.5 50.5s51.5 85.5 51.5 155.5v152c0 70 -17.167 121.833 -51.5 155.5s-83.833 50.5 -148.5 50.5s-114.167 -16.833 -148.5 -50.5
s-51.5 -85.5 -51.5 -155.5v-152zM176 380c0 20.667 6.66699 36.5 20 47.5s31.333 16.5 54 16.5s40.667 -5.5 54 -16.5s20 -26.833 20 -47.5v-216c0 -20.667 -6.66699 -36.5 -20 -47.5s-31.333 -16.5 -54 -16.5s-40.667 5.5 -54 16.5s-20 26.833 -20 47.5v216z" />
    <glyph glyph-name="oacute" unicode="&#xf3;" 
d="M258 756l-93 -146h101l147 146h-155zM50 196c0 -70 17.167 -121.833 51.5 -155.5s83.833 -50.5 148.5 -50.5s114.167 16.833 148.5 50.5s51.5 85.5 51.5 155.5v152c0 70 -17.167 121.833 -51.5 155.5s-83.833 50.5 -148.5 50.5s-114.167 -16.833 -148.5 -50.5
s-51.5 -85.5 -51.5 -155.5v-152zM176 380c0 20.667 6.66699 36.5 20 47.5s31.333 16.5 54 16.5s40.667 -5.5 54 -16.5s20 -26.833 20 -47.5v-216c0 -20.667 -6.66699 -36.5 -20 -47.5s-31.333 -16.5 -54 -16.5s-40.667 5.5 -54 16.5s-20 26.833 -20 47.5v216z" />
    <glyph glyph-name="ocircumflex" unicode="&#xf4;" 
d="M187 756l-114 -146h113l64 82l64 -82h113l-114 146h-126zM50 196c0 -70 17.167 -121.833 51.5 -155.5s83.833 -50.5 148.5 -50.5s114.167 16.833 148.5 50.5s51.5 85.5 51.5 155.5v152c0 70 -17.167 121.833 -51.5 155.5s-83.833 50.5 -148.5 50.5
s-114.167 -16.833 -148.5 -50.5s-51.5 -85.5 -51.5 -155.5v-152zM176 380c0 20.667 6.66699 36.5 20 47.5s31.333 16.5 54 16.5s40.667 -5.5 54 -16.5s20 -26.833 20 -47.5v-216c0 -20.667 -6.66699 -36.5 -20 -47.5s-31.333 -16.5 -54 -16.5s-40.667 5.5 -54 16.5
s-20 26.833 -20 47.5v216z" />
    <glyph glyph-name="otilde" unicode="&#xf5;" 
d="M368 744c-2.66699 -12.667 -8.16895 -23.001 -16.502 -31.001s-18.5 -12 -30.5 -12c-9.33301 0 -27 5 -53 15c-18 7.33301 -33.667 12.833 -47 16.5s-26.333 5.5 -39 5.5c-33.333 0 -59.5 -11.5 -78.5 -34.5s-31.167 -52.167 -36.5 -87.5h63
c2.66699 12.667 7.83398 22.834 15.501 30.501s17.5 11.5 29.5 11.5c14 0 36.333 -5.33301 67 -16c34.667 -12.667 61.334 -19 80.001 -19c32.667 0 57.5 11 74.5 33s29.167 51.333 36.5 88h-65zM49.998 195.999c0 -70 17.167 -121.833 51.5 -155.5
s83.833 -50.5 148.5 -50.5s114.167 16.833 148.5 50.5s51.5 85.5 51.5 155.5v152c0 70 -17.167 121.833 -51.5 155.5s-83.833 50.5 -148.5 50.5s-114.167 -16.833 -148.5 -50.5s-51.5 -85.5 -51.5 -155.5v-152zM175.998 379.999c0 20.667 6.66699 36.5 20 47.5
s31.333 16.5 54 16.5s40.667 -5.5 54 -16.5s20 -26.833 20 -47.5v-216c0 -20.667 -6.66699 -36.5 -20 -47.5s-31.333 -16.5 -54 -16.5s-40.667 5.5 -54 16.5s-20 26.833 -20 47.5v216z" />
    <glyph glyph-name="odieresis" unicode="&#xf6;" 
d="M95 732v-114h120v114h-120zM285 732v-114h120v114h-120zM50 196c0 -70 17.167 -121.833 51.5 -155.5s83.833 -50.5 148.5 -50.5s114.167 16.833 148.5 50.5s51.5 85.5 51.5 155.5v152c0 70 -17.167 121.833 -51.5 155.5s-83.833 50.5 -148.5 50.5
s-114.167 -16.833 -148.5 -50.5s-51.5 -85.5 -51.5 -155.5v-152zM176 380c0 20.667 6.66699 36.5 20 47.5s31.333 16.5 54 16.5s40.667 -5.5 54 -16.5s20 -26.833 20 -47.5v-216c0 -20.667 -6.66699 -36.5 -20 -47.5s-31.333 -16.5 -54 -16.5s-40.667 5.5 -54 16.5
s-20 26.833 -20 47.5v216z" />
    <glyph glyph-name="divide" unicode="&#xf7;" horiz-adv-x="600" 
d="M572 211v122h-544v-122h544zM204 495c0 -26 9.5 -48.333 28.5 -67s41.833 -28 68.5 -28c24 0 45.5 9.83301 64.5 29.5s28.5 41.5 28.5 65.5c0 25.333 -9.33301 47.5 -28 66.5s-40.667 28.5 -66 28.5c-26 0 -48.5 -9.33301 -67.5 -28s-28.5 -41 -28.5 -67zM204 49
c0 -25.333 9.5 -47.5 28.5 -66.5s41.833 -28.5 68.5 -28.5c24 0 45.5 9.83301 64.5 29.5s28.5 41.5 28.5 65.5c0 26 -9.33301 48.333 -28 67s-40.667 28 -66 28c-26 0 -48.5 -9.16699 -67.5 -27.5s-28.5 -40.833 -28.5 -67.5z" />
    <glyph glyph-name="oslash" unicode="&#xf8;" 
d="M178 209h-2v171c0 20.667 6.66699 36.5 20 47.5s31.333 16.5 54 16.5c18.667 0 34 -4 46 -12zM322 317h2v-153c0 -20.667 -6.66699 -36.5 -20 -47.5s-31.333 -16.5 -54 -16.5c-15.333 0 -28.333 2.66699 -39 8zM156 6c25.333 -10.667 56.667 -16 94 -16
c64.667 0 114.167 16.833 148.5 50.5s51.5 85.5 51.5 155.5v152c0 58.667 -12 104 -36 136l78 146h-89l-51 -95c-28 12.667 -62 19 -102 19c-64.667 0 -114.167 -16.833 -148.5 -50.5s-51.5 -85.5 -51.5 -155.5v-152c0 -62.667 14 -110.667 42 -144l-88 -164h89z" />
    <glyph glyph-name="ugrave" unicode="&#xf9;" 
d="M78 756l147 -146h101l-93 146h-155zM314 544l0.00195312 -410.999c-17.333 -15.333 -32.5 -27.333 -45.5 -36s-25.167 -13 -36.5 -13c-16 0 -27.667 5.16699 -35 15.5s-11 25.166 -11 44.499v400h-126v-414c0 -49.333 9.66699 -85 29 -107s48.666 -33 87.999 -33
c24 0 46.667 6 68 18s45.666 30 72.999 54v-62h122v544h-126z" />
    <glyph glyph-name="uacute" unicode="&#xfa;" 
d="M249 756l-93 -146h101l147 146h-155zM314 544l0.00195312 -410.999c-17.333 -15.333 -32.5 -27.333 -45.5 -36s-25.167 -13 -36.5 -13c-16 0 -27.667 5.16699 -35 15.5s-11 25.166 -11 44.499v400h-126v-414c0 -49.333 9.66699 -85 29 -107s48.666 -33 87.999 -33
c24 0 46.667 6 68 18s45.666 30 72.999 54v-62h122v544h-126z" />
    <glyph glyph-name="ucircumflex" unicode="&#xfb;" 
d="M178 756l-114 -146h113l64 82l64 -82h113l-114 146h-126zM314 544l0.00195312 -410.999c-17.333 -15.333 -32.5 -27.333 -45.5 -36s-25.167 -13 -36.5 -13c-16 0 -27.667 5.16699 -35 15.5s-11 25.166 -11 44.499v400h-126v-414c0 -49.333 9.66699 -85 29 -107
s48.666 -33 87.999 -33c24 0 46.667 6 68 18s45.666 30 72.999 54v-62h122v544h-126z" />
    <glyph glyph-name="udieresis" unicode="&#xfc;" 
d="M86 732v-114h120v114h-120zM276 732v-114h120v114h-120zM314 544l0.00195312 -410.999c-17.333 -15.333 -32.5 -27.333 -45.5 -36s-25.167 -13 -36.5 -13c-16 0 -27.667 5.16699 -35 15.5s-11 25.166 -11 44.499v400h-126v-414c0 -49.333 9.66699 -85 29 -107
s48.666 -33 87.999 -33c24 0 46.667 6 68 18s45.666 30 72.999 54v-62h122v544h-126z" />
    <glyph glyph-name="yacute" unicode="&#xfd;" horiz-adv-x="444" 
d="M230 756l-93 -146h101l147 146h-155zM32 -190c18.667 -1.33301 32 -2.00098 40 -2.00098c32 0 59.333 3.33301 82 10s42.167 17.334 58.5 32.001s30.5 34.334 42.5 59.001s23 55.667 33 93l145 542h-128l-79 -360h-2l-85 360h-128l126 -439
c15.333 -54 23 -92.333 23 -115c0 -14.667 -8.83301 -30.334 -26.5 -47.001s-39.167 -25 -64.5 -25c-16.667 0 -29 0.666992 -37 2v-110z" />
    <glyph glyph-name="thorn" unicode="&#xfe;" 
d="M186 421c24 26 49.333 39 76 39c19.333 0 34.5 -9.16699 45.5 -27.5s16.5 -52.5 16.5 -102.5v-116c0 -50 -5.5 -84.167 -16.5 -102.5s-26.167 -27.5 -45.5 -27.5c-26.667 0 -52 13 -76 39v298zM60 722v-914.001h126v242c30.667 -22 55.167 -37.5 73.5 -46.5
s35.833 -13.5 52.5 -13.5c48 0 83 18 105 54s33 90 33 162v132c0 72 -11 126 -33 162s-57 54 -105 54c-13.333 0 -26.666 -2.16699 -39.999 -6.5s-26.333 -10.166 -39 -17.499c-22.667 -13.333 -38.334 -27.333 -47.001 -42h-2v234h-124z" />
    <glyph glyph-name="ydieresis" unicode="&#xff;" horiz-adv-x="444" 
d="M67 732v-114h120v114h-120zM257 732v-114h120v114h-120zM32 -190c18.667 -1.33301 32 -2.00098 40 -2.00098c32 0 59.333 3.33301 82 10s42.167 17.334 58.5 32.001s30.5 34.334 42.5 59.001s23 55.667 33 93l145 542h-128l-79 -360h-2l-85 360h-128l126 -439
c15.333 -54 23 -92.333 23 -115c0 -14.667 -8.83301 -30.334 -26.5 -47.001s-39.167 -25 -64.5 -25c-16.667 0 -29 0.666992 -37 2v-110z" />
    <glyph glyph-name="OE" unicode="&#x152;" horiz-adv-x="944" 
d="M196 436c0 65.333 10.5 110.668 31.5 136.001s57.833 38 110.5 38c42.667 0 72 -10.5 88 -31.5s24 -53.833 24 -98.5v-238c0 -44.667 -8 -77.5 -24 -98.5s-45.333 -31.5 -88 -31.5c-52.667 0 -89.5 12.667 -110.5 38s-31.5 70.666 -31.5 135.999v150zM588 600.002
h296.999v122h-327c-19.333 0 -35.666 0.333008 -48.999 1s-30.333 2 -51 4l-57.5 3.5c-17 1 -36.5 1.5 -58.5 1.5c-87.333 0 -156.5 -22.667 -207.5 -68s-76.5 -112 -76.5 -200v-191c0 -88 22.333 -157.167 67 -207.5s104.667 -75.5 180 -75.5c18.667 0 35 0.5 49 1.5
s29.333 2.16699 46 3.5c16 2 29.5 3.33301 40.5 4s24.5 1 40.5 1h413v122h-306v190h223v122h-223v166z" />
    <glyph glyph-name="oe" unicode="&#x153;" horiz-adv-x="778" 
d="M176 380c0 20.667 6.66699 36.5 20 47.5s31.333 16.5 54 16.5s40.667 -5.5 54 -16.5s20 -26.833 20 -47.5v-216c0 -20.667 -6.66699 -36.5 -20 -47.5s-31.333 -16.5 -54 -16.5s-40.667 5.5 -54 16.5s-20 26.833 -20 47.5v216zM728 242l0.000976562 127.001
c0 54.667 -18.333 99.167 -55 133.5s-83 51.5 -139 51.5c-32.667 0 -61.334 -6.5 -86.001 -19.5s-44.667 -30.5 -60 -52.5c-14.667 22 -34 39.5 -58 52.5s-52.667 19.5 -86 19.5c-62 0 -109.833 -16.833 -143.5 -50.5s-50.5 -85.5 -50.5 -155.5v-152
c0 -70 16.833 -121.833 50.5 -155.5s81.5 -50.5 143.5 -50.5c33.333 0 62 6.5 86 19.5s43.333 30.5 58 52.5c15.333 -22 35 -39.5 59 -52.5s51 -19.5 81 -19.5c62.667 0 110.834 15.5 144.501 46.5s52.167 74.833 55.5 131.5h-126c0 -22.667 -6 -41 -18 -55
s-30.667 -21 -56 -21c-22.667 0 -41.334 6.66699 -56.001 20s-22 32.666 -22 57.999v72h278zM450.001 344.001l0.000976562 30c0 24.667 6.66699 43.834 20 57.501s32.666 20.5 57.999 20.5c24.667 0 43.167 -6.83301 55.5 -20.5s18.5 -32.834 18.5 -57.501v-30h-152z" />
    <glyph glyph-name="Scaron" unicode="&#x160;" horiz-adv-x="556" 
d="M341 763l114 146h-113l-64 -82l-64 82h-113l114 -146h126zM491 557c-12.667 53.333 -38 95.833 -76 127.5s-86.667 47.5 -146 47.5c-70 0 -123.667 -17.833 -161 -53.5s-56 -85.167 -56 -148.5c0 -26 5 -49.5 15 -70.5s23.167 -39.333 39.5 -55
s33.833 -29.334 52.5 -41.001s42 -25.167 70 -40.5c44.667 -24.667 77.667 -46.167 99 -64.5s32 -41.166 32 -68.499c0 -26 -8 -46.833 -24 -62.5s-36.333 -23.5 -61 -23.5c-23.333 0 -45.166 9.66699 -65.499 29s-34.166 49 -41.499 89l-136 -29
c18 -68.667 47.333 -119.667 88 -153s90 -50 148 -50c72 0 128.333 18.667 169 56s61 87.333 61 150c0 31.333 -5.66699 59.333 -17 84s-26.333 46.167 -45 64.5s-37.834 33.666 -57.501 45.999s-44.834 26.833 -75.501 43.5c-38.667 20.667 -67.167 38.334 -85.5 53.001
s-27.5 32 -27.5 52c0 24.667 6.66699 44 20 58s32 21 56 21s44 -7.66699 60 -23s29.667 -40 41 -74z" />
    <glyph glyph-name="scaron" unicode="&#x161;" horiz-adv-x="444" 
d="M285 610l114 146h-113l-64 -82l-64 82h-113l114 -146h126zM404 418c-16 42 -40.1689 75.167 -72.502 99.5s-71.5 36.5 -117.5 36.5c-48 0 -88.667 -13.167 -122 -39.5s-50 -63.833 -50 -112.5c0 -24.667 4.33301 -46.334 13 -65.001s19.834 -34.334 33.501 -47.001
s28.167 -23.167 43.5 -31.5s35 -18.166 59 -29.499c33.333 -15.333 57.833 -29 73.5 -41s23.5 -28 23.5 -48c0 -14.667 -5.5 -26.334 -16.5 -35.001s-25.833 -13 -44.5 -13c-24 0 -43.833 7.5 -59.5 22.5s-26.5 35.5 -32.5 61.5l-113 -31c28 -62 58.167 -103.333 90.5 -124
s70.5 -31 114.5 -31c54 0 97.667 14.333 131 43s50 69.334 50 122.001c0 22.667 -4.5 42.667 -13.5 60s-20.667 32.333 -35 45s-29.166 23.334 -44.499 32.001s-35.333 19 -60 31c-32.667 16 -56.334 29.333 -71.001 40s-22 24 -22 40c0 14 4.83301 25.667 14.5 35
s21.834 14 36.501 14c41.333 0 70.333 -24.667 87 -74z" />
    <glyph glyph-name="Ydieresis" unicode="&#x178;" horiz-adv-x="556" 
d="M123 885v-114h120v114h-120zM313 885v-114h120v114h-120zM159 722h-147l197 -430v-292h138v292l197 430h-147l-117 -291z" />
    <glyph glyph-name="florin" unicode="&#x192;" horiz-adv-x="556" 
d="M26 -181c18.667 -7.33301 43.001 -10.998 73.001 -10.998c32.667 0 60.167 6.33301 82.5 19s40.666 29.667 54.999 51s25.5 44.833 33.5 70.5s15.333 55.167 22 88.5l64 329h116v88h-99c9.33301 65.333 20.333 110.833 33 136.5s30 38.834 52 39.501
c14.667 0 29.334 -3.33301 44.001 -10l18 100c-26 8 -50.667 12 -74 12c-28.667 0 -53.334 -5 -74.001 -15s-38.334 -25.833 -53.001 -47.5s-27.334 -49.834 -38.001 -84.501s-20.667 -78.334 -30 -131.001h-119v-88h98l-71 -371
c-5.33301 -30.667 -13.666 -52.5 -24.999 -65.5s-24.666 -19.5 -39.999 -19.5c-8 0 -17 1.16699 -27 3.5s-18.333 5.16602 -25 8.49902z" />
    <glyph glyph-name="circumflex" unicode="&#x2c6;" horiz-adv-x="278" 
d="M76 756l-114 -146h113l64 82l64 -82h113l-114 146h-126z" />
    <glyph glyph-name="tilde" unicode="&#x2dc;" horiz-adv-x="278" 
d="M257 744c-2.66699 -12.667 -8.16895 -23.001 -16.502 -31.001s-18.5 -12 -30.5 -12c-9.33301 0 -27 5 -53 15c-18 7.33301 -33.667 12.833 -47 16.5s-26.333 5.5 -39 5.5c-33.333 0 -59.5 -11.5 -78.5 -34.5s-31.167 -52.167 -36.5 -87.5h63
c2.66699 12.667 7.83398 22.834 15.501 30.501s17.5 11.5 29.5 11.5c14 0 36.333 -5.33301 67 -16c34.667 -12.667 61.334 -19 80.001 -19c32.667 0 57.5 11 74.5 33s29.167 51.333 36.5 88h-65z" />
    <glyph glyph-name="endash" unicode="&#x2013;" 
d="M500 230v84h-500v-84h500z" />
    <glyph glyph-name="emdash" unicode="&#x2014;" horiz-adv-x="1000" 
d="M1000 230v84h-1000v-84h1000z" />
    <glyph glyph-name="quoteleft" unicode="&#x2018;" horiz-adv-x="222" 
d="M173 732h-70l-63 -148v-142h142v142h-60z" />
    <glyph glyph-name="quoteright" unicode="&#x2019;" horiz-adv-x="222" 
d="M49 432h70l63 148v142h-142v-142h60z" />
    <glyph glyph-name="quotesinglbase" unicode="&#x201a;" horiz-adv-x="222" 
d="M49 -148h70l63 148v142h-142v-142h60z" />
    <glyph glyph-name="quotedblleft" unicode="&#x201c;" horiz-adv-x="444" 
d="M173 732h-70l-63 -148v-142h142v142h-60zM395 732h-70l-63 -148v-142h142v142h-60z" />
    <glyph glyph-name="quotedblright" unicode="&#x201d;" horiz-adv-x="444" 
d="M49 432h70l63 148v142h-142v-142h60zM271 432h70l63 148v142h-142v-142h60z" />
    <glyph glyph-name="quotedblbase" unicode="&#x201e;" horiz-adv-x="444" 
d="M49 -148h70l63 148v142h-142v-142h60zM271 -148h70l63 148v142h-142v-142h60z" />
    <glyph glyph-name="dagger" unicode="&#x2020;" 
d="M66 467l159 27.001l-25 -170c4.66699 -38.667 8.66699 -80.167 12 -124.5l13 -181.5c2.66699 -39.333 4.66699 -70 6 -92h38c1.33301 22 3.33301 52.667 6 92c4 66 8 123.667 12 173s8.33301 93.666 13 132.999l-25 170l159 -27v96l-162 -27l26 196h-96l26 -196l-162 27
v-96z" />
    <glyph glyph-name="daggerdbl" unicode="&#x2021;" 
d="M200 329l25 -177l-159 27v-96l162 27l-26 -184h96l-26 184l162 -27v96l-159 -27l25 177l-25 177l159 -27v96l-162 -27l26 184h-96l26 -184l-162 27v-96l159 27z" />
    <glyph glyph-name="bullet" unicode="&#x2022;" 
d="M69 361c0 -24.667 4.66699 -48 14 -70s22.166 -41.333 38.499 -58s35.5 -29.667 57.5 -39s45.333 -14 70 -14s48 4.66699 70 14s41.333 22.333 58 39s29.667 36 39 58s14 45.333 14 70s-4.66699 48 -14 70s-22.333 41.167 -39 57.5s-36 29.166 -58 38.499
s-45.333 14 -70 14s-48 -4.66699 -70 -14s-41.167 -22.166 -57.5 -38.499s-29.166 -35.5 -38.499 -57.5s-14 -45.333 -14 -70z" />
    <glyph glyph-name="ellipsis" unicode="&#x2026;" horiz-adv-x="1000" 
d="M238 0v142h-142v-142h142zM904 0v142h-142v-142h142zM571 0v142h-142v-142h142z" />
    <glyph glyph-name="perthousand" unicode="&#x2030;" horiz-adv-x="1000" 
d="M162 722c-20 0 -39 -3.83301 -57 -11.5s-34 -18.5 -48 -32.5c-28.667 -28.667 -43 -63.334 -43 -104.001s14.333 -75.334 43 -104.001c14 -14 30 -24.833 48 -32.5s37 -11.5 57 -11.5s39 3.83301 57 11.5s34 18.5 48 32.5c28.667 28.667 43 63.334 43 104.001
s-14.333 75.334 -43 104.001c-14 14 -30 24.833 -48 32.5s-37 11.5 -57 11.5zM162 640c18.667 0 34.334 -6.33301 47.001 -19s19 -28.334 19 -47.001s-6.33301 -34.334 -19 -47.001s-28.334 -19 -47.001 -19s-34.334 6.33301 -47.001 19s-19 28.334 -19 47.001
s6.33301 34.334 19 47.001s28.334 19 47.001 19zM477 214c18.667 0 34.334 -6.33301 47.001 -19s19 -28.334 19 -47.001s-6.33301 -34.334 -19 -47.001s-28.334 -19 -47.001 -19s-34.334 6.33301 -47.001 19s-19 28.334 -19 47.001s6.33301 34.334 19 47.001
s28.334 19 47.001 19zM477 296c-20 0 -39 -3.83301 -57 -11.5s-34 -18.5 -48 -32.5c-28.667 -28.667 -43 -63.334 -43 -104.001s14.333 -75.334 43 -104.001c14 -14 30 -24.833 48 -32.5s37 -11.5 57 -11.5s39 3.83301 57 11.5s34 18.5 48 32.5
c28.667 28.667 43 63.334 43 104.001s-14.333 75.334 -43 104.001c-14 14 -30 24.833 -48 32.5s-37 11.5 -57 11.5zM838 214c18.667 0 34.334 -6.33301 47.001 -19s19 -28.334 19 -47.001s-6.33301 -34.334 -19 -47.001s-28.334 -19 -47.001 -19s-34.334 6.33301 -47.001 19
s-19 28.334 -19 47.001s6.33301 34.334 19 47.001s28.334 19 47.001 19zM838 296c-20 0 -39 -3.83301 -57 -11.5s-34 -18.5 -48 -32.5c-28.667 -28.667 -43 -63.334 -43 -104.001s14.333 -75.334 43 -104.001c14 -14 30 -24.833 48 -32.5s37 -11.5 57 -11.5
s39 3.83301 57 11.5s34 18.5 48 32.5c28.667 28.667 43 63.334 43 104.001s-14.333 75.334 -43 104.001c-14 14 -30 24.833 -48 32.5s-37 11.5 -57 11.5zM76 -10h77l408 742h-77z" />
    <glyph glyph-name="guilsinglleft" unicode="&#x2039;" horiz-adv-x="333" 
d="M38 272l122 -160h110l-122 160l122 160h-110z" />
    <glyph glyph-name="guilsinglright" unicode="&#x203a;" horiz-adv-x="333" 
d="M295 272l-122 160h-110l122 -160l-122 -160h110z" />
    <glyph glyph-name="trademark" unicode="&#x2122;" horiz-adv-x="1000" 
d="M592 722h-153v-412h106v280h2l98 -280h81l98 280h2v-280h106v412h-153l-93 -250zM373 722h-341v-84h114v-328h112v328h115v84z" />
    </font>
</defs>
</svg>
